<?xml version="1.0" encoding="UTF-8" standalone="no"?>
<!-- Created with Inkscape (http://www.inkscape.org/) -->

<svg
   width="1920"
   height="1080"
   viewBox="0 0 1920 1080"
   version="1.1"
   id="svg1"
   inkscape:version="1.4.2 (f4327f4, 2025-05-13)"
   sodipodi:docname="SAGUING_AARON_EZEKIEL_2D.svg"
   xmlns:inkscape="http://www.inkscape.org/namespaces/inkscape"
   xmlns:sodipodi="http://sodipodi.sourceforge.net/DTD/sodipodi-0.dtd"
   xmlns="http://www.w3.org/2000/svg"
   xmlns:svg="http://www.w3.org/2000/svg">
  <sodipodi:namedview
     id="namedview1"
     pagecolor="#505050"
     bordercolor="#eeeeee"
     borderopacity="1"
     inkscape:showpageshadow="0"
     inkscape:pageopacity="0"
     inkscape:pagecheckerboard="0"
     inkscape:deskcolor="#505050"
     inkscape:document-units="px"
     inkscape:zoom="0.50610513"
     inkscape:cx="789.36169"
     inkscape:cy="597.7019"
     inkscape:window-width="1920"
     inkscape:window-height="991"
     inkscape:window-x="-9"
     inkscape:window-y="-9"
     inkscape:window-maximized="1"
     inkscape:current-layer="layer2" />
  <defs
     id="defs1" />
  <g
     inkscape:label="Layer 1"
     inkscape:groupmode="layer"
     id="layer1">
    <ellipse
       style="fill:#f6c97d;fill-opacity:1;stroke:#2d2d2d;stroke-width:0.473;stroke-dasharray:none"
       id="path1"
       cx="964.64691"
       cy="279.31033"
       rx="97.545479"
       ry="108.67307" />
    <path
       style="fill:#1d1d1d;fill-opacity:1;stroke:#2d2d2d;stroke-width:0.473;stroke-dasharray:none"
       d="m 902.90088,231.88936 c 26.83597,29.95165 57.00717,38.86645 46.43304,33.09589 l -16.79493,-55.81844 6.01885,25.34869 c 7.38868,10.43017 -7.84494,7.19165 46.10608,30.03881 l -21.30659,-54.66365 c 5.31512,17.0607 17.47281,28.03912 31.08667,37.72316 2.40699,-11.8093 12.7227,-17.50655 12.5744,-35.27813 1.8479,2.87728 29.8555,55.09446 55.1876,65.31694 5.3509,-13.2802 9.4787,-32.67606 11.1141,-64.53407 l -16.795,-44.45717 c -15.2077,-15.24165 -13.616,-31.03686 -65.69782,-45.4451 -37.31106,0.55988 -72.49752,5.01486 -104.22736,15.80699 -28.35318,23.21652 -46.59955,46.43304 -48.90288,69.64956 l -0.49397,54.35108 32.10795,39.50293 c 10.47954,-28.46711 29.10753,-20.84279 33.58986,-70.63749 z"
       id="path2"
       inkscape:label="hair"
       sodipodi:nodetypes="ccccccccccccccccc" />
    <path
       style="fill:#1d1d1d;fill-opacity:1;stroke:#2d2d2d;stroke-width:0.550235;stroke-dasharray:none"
       d="m 905.70926,292.87433 c 15.03456,28.28279 34.36785,27.56423 47.26473,-0.57636 z"
       id="path3"
       sodipodi:nodetypes="ccc" />
    <path
       style="fill:#1d1d1d;fill-opacity:1;stroke:#2d2d2d;stroke-width:0.550235;stroke-dasharray:none"
       d="m 986.07971,292.79725 c 15.03459,28.28279 34.36789,27.56423 47.26479,-0.57636 z"
       id="path3-8"
       sodipodi:nodetypes="ccc" />
    <path
       style="fill:#1d1d1d;fill-opacity:1;stroke:#2d2d2d;stroke-width:0.473;stroke-dasharray:none"
       id="path5"
       d="m 921.38046,282.36907 c 0.41847,-0.0471 0.83499,-0.11728 1.25541,-0.14141 5.44242,-0.31234 10.96381,0.4615 16.35019,1.12996 4.64466,0.75054 2.3991,0.36396 6.73814,1.15135 0,0 -10.65503,-7.99851 -10.65503,-7.99851 v 0 c -4.07814,-0.53671 -1.94797,-0.25873 -6.39066,-0.83266 -6.40097,-0.75156 -12.80613,-1.47805 -19.23246,-1.97959 z" />
    <path
       style="fill:#1d1d1d;fill-opacity:1;stroke:#2d2d2d;stroke-width:0.473;stroke-dasharray:none"
       id="path5-1"
       d="m 1004.1986,274.07377 c 0.4185,0.0471 0.835,0.11728 1.2554,0.14141 5.4424,0.31234 10.9638,-0.4615 16.3502,-1.12996 4.6447,-0.75054 2.3991,-0.36396 6.7382,-1.15135 0,0 -10.6551,7.99851 -10.6551,7.99851 v 0 c -4.0781,0.53671 -1.948,0.25873 -6.3907,0.83266 -6.4009,0.75156 -12.8061,1.47805 -19.23243,1.97959 z" />
    <circle
       id="path6"
       style="fill:#2d2d2d;stroke:none"
       cx="969.62482"
       cy="314.35965"
       r="0.66219997" />
    <path
       style="fill:#1d1d1d;fill-opacity:1;stroke:#2d2d2d;stroke-width:1.173;stroke-dasharray:none"
       d="m 961.5912,328.68047 8.03363,-14.32083"
       id="path7" />
    <path
       style="fill:#1d1d1d;fill-opacity:1;stroke:#2d2d2d;stroke-width:1.073;stroke-dasharray:none"
       d="m 960.89262,328.33118 9.0815,8.03364"
       id="path8" />
    <path
       style="fill:#1d1d1d;fill-opacity:1;stroke:#2d2d2d;stroke-width:2.073;stroke-dasharray:none"
       d="m 966.48123,362.03752 27.59379,-10.82794"
       id="path9" />
    <path
       style="fill:none;stroke:#000000;stroke-width:3;stroke-linecap:butt;stroke-linejoin:miter;stroke-dasharray:none;stroke-opacity:1"
       d="m 892.28055,289.43669 68.90861,-0.98794 0.24698,24.94541 -63.96892,7.65651 z"
       id="path10" />
    <path
       style="fill:none;stroke:#000000;stroke-width:3;stroke-linecap:butt;stroke-linejoin:miter;stroke-dasharray:none;stroke-opacity:1"
       d="m 961.68313,300.05701 h 17.04191 z"
       id="path11" />
    <path
       style="fill:none;stroke:#000000;stroke-width:3;stroke-linecap:butt;stroke-linejoin:miter;stroke-dasharray:none;stroke-opacity:1"
       d="m 978.97203,287.21383 0.24698,25.93335 56.55939,6.1746 5.1867,-34.08383 z"
       id="path12" />
    <path
       style="fill:none;stroke:#000000;stroke-width:1px;stroke-linecap:butt;stroke-linejoin:miter;stroke-opacity:1"
       d="m 869.31102,303.02082 c -6.48597,-0.90775 -12.80585,1.64078 -13.98093,8.39233 -0.21508,6.43555 6.36966,17.50331 8.66713,17.66088 7.91401,2.80969 8.64308,-0.84009 12.72332,-2.83669 z"
       id="path13"
       sodipodi:nodetypes="ccccc"
       inkscape:label="earleft" />
    <path
       style="fill:none;stroke:#000000;stroke-width:1px;stroke-linecap:butt;stroke-linejoin:miter;stroke-opacity:1"
       d="m 1061.7118,278.3224 c 7.0959,-0.43863 12.9513,2.63763 17.2538,10.11394 1.1065,5.67576 -0.047,9.55264 -1.9036,14.4749 -2.5387,5.82085 -10.6953,6.00524 -18.314,6.28419 1.1254,-10.22224 4.3162,-19.41186 2.9638,-30.87303 z"
       id="path14"
       inkscape:label="earright"
       sodipodi:nodetypes="ccccc" />
    <path
       style="fill:#ffcf1a;fill-opacity:0;stroke:#2d2d2d;stroke-width:0.165213;stroke-dasharray:none"
       d=""
       id="path27" />
    <path
       style="fill:#ffcf1a;fill-opacity:0;stroke:#2d2d2d;stroke-width:0.165213;stroke-dasharray:none"
       d=""
       id="path28" />
    <path
       style="fill:#ffcf1a;fill-opacity:0;stroke:#2d2d2d;stroke-width:0.165213;stroke-dasharray:none"
       d=""
       id="path29" />
    <path
       style="fill:#ffcf1a;fill-opacity:0;stroke:#2d2d2d;stroke-width:0.165213;stroke-dasharray:none"
       d=""
       id="path30" />
    <path
       style="fill:#f6c97d;fill-opacity:1;stroke:#2d2d2d;stroke-width:0.165213;stroke-dasharray:none"
       d="m 1059.5667,308.13396 c 0,-0.21667 0.6395,-4.20934 1.4211,-8.87261 1.0955,-6.53564 1.4674,-9.81945 1.623,-14.32926 l 0.2018,-5.85058 h 1.4572 c 4.5873,0 9.6068,3.06006 12.8905,7.85852 l 1.4345,2.0962 -0.023,3.66753 c -0.02,3.15704 -0.18,4.14297 -1.1508,7.08336 -1.3103,3.96843 -2.4176,5.43091 -5.0418,6.6594 -2.3599,1.10475 -4.7477,1.58793 -9.1908,1.85978 -2.5863,0.15824 -3.6217,0.10897 -3.6217,-0.17234 z"
       id="path64" />
    <path
       style="fill:#f6c97d;fill-opacity:1;stroke:#2d2d2d;stroke-width:0.165213;stroke-dasharray:none"
       d="m 865.53686,328.84433 c -2.25704,-0.61032 -3.99257,-2.48571 -6.15874,-6.65506 -3.158,-6.07838 -3.97988,-10.43498 -2.49842,-13.2436 1.7135,-3.24852 4.88552,-5.08389 9.23121,-5.34129 l 2.66978,-0.15813 0.59885,2.05113 c 0.32936,1.12813 1.11709,3.9373 1.7505,6.2426 0.63341,2.3053 1.95247,6.36729 2.93124,9.02663 0.97878,2.65934 1.77959,4.88441 1.77959,4.9446 0,0.19563 -3.37995,2.54363 -4.48173,3.11339 -1.27726,0.6605 -3.42573,0.66778 -5.82228,0.0197 z"
       id="path65" />
    <path
       style="fill:#f6c97d;fill-opacity:1;stroke:#2d2d2d;stroke-width:2.073;stroke-dasharray:none"
       d="m 990.58214,344.74774 7.33506,13.27296"
       id="path66" />
    <path
       style="fill:#f6c97d;fill-opacity:1;stroke:#2d2d2d;stroke-width:3;stroke-dasharray:none"
       d="m 869.558,302.27987 25.1924,4.6927"
       id="path68" />
    <path
       style="fill:#f6c97d;fill-opacity:1;stroke:#2d2d2d;stroke-width:3;stroke-dasharray:none"
       d="m 1038.2483,299.56304 24.2044,-19.75874"
       id="path69" />
    <path
       style="fill:none;stroke:#000000;stroke-width:1.01613px;stroke-linecap:butt;stroke-linejoin:miter;stroke-opacity:1"
       d="m 922.10823,377.49295 51.58937,60.62026 46.2288,-68.4285 c -39.07425,23.52281 -69.00326,22.31432 -97.81817,7.80824 z"
       id="path70"
       sodipodi:nodetypes="cccc" />
    <path
       style="fill:none;stroke:#000000;stroke-width:1.0123px;stroke-linecap:butt;stroke-linejoin:miter;stroke-opacity:1"
       d="m 923.16073,378.11115 -23.21202,12.88337 29.77193,33.44724 15.64287,-9.16702 -1.76613,8.42375 30.78114,15.60871 z"
       id="path71" />
    <path
       style="fill:#f6c97d;fill-opacity:1;stroke:#2d2d2d;stroke-width:1.25012;stroke-dasharray:none"
       d="M 974.04572,443.89177 V 656.61646"
       id="path74" />
    <path
       style="fill:#f6c97d;fill-opacity:1;stroke:#2d2d2d;stroke-width:0.973;stroke-dasharray:none"
       d="m 880.17832,661.88895 183.26238,-1.48191"
       id="path75" />
    <path
       style="fill:none;stroke:#000000;stroke-width:1.13682px;stroke-linecap:butt;stroke-linejoin:miter;stroke-opacity:1"
       d="m 901.61436,393.38498 -42.97912,17.43243 c -15.97313,28.56942 -21.13927,55.17394 -22.70858,81.12449 l 35.79071,21.39896 27.15157,-61.9612 c -3.29723,76.38426 -12.25969,141.35606 -15.95104,210.3019 l 183.6258,-1.38385 c -10.3481,-71.57561 -22.1121,-142.17837 -30.3694,-216.35587 l 32.813,50.13674 38.3981,-36.13459 c -7.9041,-18.36842 -17.6542,-36.73683 -32.1148,-55.10525 l -34.9065,-21.06639 -24.3659,34.88255 -13.2593,-9.96713 -1.4741,10.19735 -26.29233,22.55826 -32.53761,-15.29119 1.75849,-7.98882 -14.66068,9.17527 z m 280.65624,27.45376"
       id="path76"
       sodipodi:nodetypes="cccccccccccccccccccc" />
    <path
       style="fill:none;stroke:#000000;stroke-width:1.01983px;stroke-linecap:butt;stroke-linejoin:miter;stroke-opacity:1"
       d="m 973.47601,439.69357 27.26009,-23.17165 0.538,-9.37482 14.1681,8.84417 26.3634,-36.261 -21.5211,-9.02104 z"
       id="path77" />
    <path
       style="fill:#cfcfcf;fill-opacity:1;stroke:#2d2d2d;stroke-width:0.961263;stroke-dasharray:none"
       d="m 883.5971,653.62228 c 0.30859,-4.01134 1.24497,-16.18477 2.08085,-27.05208 0.83588,-10.86731 3.26269,-38.20847 5.39291,-60.75813 3.74388,-39.63127 7.04255,-80.34022 8.39467,-103.59892 0.53263,-9.16214 0.40889,-11.14638 -0.67283,-10.78949 -0.72901,0.24052 -7.17395,13.73945 -14.32207,29.9976 -8.59506,19.54915 -13.43774,29.4517 -14.29917,29.23963 -0.71641,-0.17637 -8.42738,-4.58156 -17.13548,-9.78932 -8.70811,-5.20775 -15.91432,-9.51647 -16.01381,-9.57493 -0.0995,-0.0584 0.47952,-5.81204 1.28667,-12.78575 2.46711,-21.31538 8.97184,-43.40916 17.45643,-59.29199 l 4.16034,-7.78801 18.93012,-7.67759 c 10.41156,-4.22268 19.76604,-7.94291 20.78773,-8.26718 1.47039,-0.46668 4.72349,2.70576 15.60557,15.21862 7.56137,8.69452 13.94114,15.80821 14.17727,15.80821 0.23613,0 3.28026,-1.80053 6.76473,-4.00117 l 6.33541,-4.00117 -0.58474,3.26022 -0.58473,3.26021 16.74913,7.77033 c 14.9016,6.91321 16.95637,7.62156 18.62782,6.42159 1.03328,-0.7418 7.29441,-5.98855 13.91364,-11.65943 10.65384,-9.12746 12.03494,-10.66744 12.03494,-13.41947 0,-1.70984 0.2763,-3.38507 0.614,-3.72275 0.3377,-0.33767 3.203,1.14423 6.3674,3.29313 3.1643,2.14889 6.1112,3.893 6.5485,3.87579 0.4374,-0.0172 2.6633,-2.79579 4.9466,-6.17461 2.2833,-3.37882 7.6372,-11.10282 11.8976,-17.16444 l 7.7461,-11.02113 16.7526,10.20607 c 14.8202,9.02873 17.3054,10.9269 21.5444,16.45478 6.3632,8.29822 17.421,27.04421 22.7123,38.50368 l 4.2657,9.23839 -18.1005,17.10465 c -9.9553,9.40756 -18.4849,16.86716 -18.9545,16.57689 -0.4697,-0.29027 -7.8541,-11.21051 -16.4099,-24.2672 -8.5558,-13.05669 -16.006,-23.73943 -16.556,-23.73943 -1.1044,0 -1.1642,-0.64147 3.3127,35.56573 3.0241,24.45723 9.9039,72.81458 20.2078,142.03912 3.0956,20.79647 5.4535,37.97721 5.2398,38.17942 -0.2137,0.20222 -41.2018,0.69523 -91.0848,1.09558 l -90.69627,0.7279 z m 91.42318,-103.6172 c 0,-70.47284 -0.33542,-106.6972 -0.98794,-106.6972 -0.65252,0 -0.98794,36.22436 -0.98794,106.6972 0,70.47284 0.33542,106.6972 0.98794,106.6972 0.65252,0 0.98794,-36.22436 0.98794,-106.6972 z"
       id="path78" />
    <path
       style="fill:#f6c97d;fill-opacity:1;stroke:#2d2d2d;stroke-width:0.339858;stroke-dasharray:none"
       d="m 965.56241,427.46774 c -12.52474,-14.70463 -39.42004,-46.86367 -39.29645,-46.98726 0.0623,-0.0623 2.06305,0.66544 4.44624,1.61708 15.22816,6.08083 29.42261,7.77151 45.804,5.45567 12.81387,-1.8115 21.54836,-4.94769 36.3331,-13.04568 2.4494,-1.34159 4.4534,-2.38038 4.4534,-2.30841 0,0.30876 -43.35372,64.2466 -43.62597,64.33935 -0.16551,0.0564 -3.81695,-4.02545 -8.11432,-9.07075 z"
       id="path79" />
    <path
       style="fill:#ffffff;fill-opacity:1;stroke:#2d2d2d;stroke-width:0.339858;stroke-dasharray:none"
       d="m 967.15014,434.82647 c -1.90477,-0.98127 -7.80816,-3.95983 -13.11864,-6.61901 l -9.65543,-4.83487 0.94404,-4.55822 c 0.51922,-2.50702 0.81226,-4.55822 0.6512,-4.55822 -0.16106,0 -3.76565,2.04334 -8.01021,4.54075 -4.24456,2.49741 -7.84233,4.54075 -7.99505,4.54075 -0.31837,0 -28.2378,-31.27452 -28.47783,-31.90001 -0.15119,-0.39401 20.16246,-11.93569 21.00714,-11.93569 0.21264,0 7.60734,8.48771 16.43266,18.86157 21.84753,25.68103 32.35859,38.24709 31.9923,38.24709 -0.16883,0 -1.86541,-0.80286 -3.77018,-1.78414 z"
       id="path80" />
    <path
       style="fill:#ffffff;fill-opacity:1;stroke:#2d2d2d;stroke-width:0.679715;stroke-dasharray:none"
       d="m 979.05562,433.44765 c 0,-0.20177 9.32189,-14.11177 20.71532,-30.91113 11.39346,-16.79935 20.74566,-30.59465 20.78266,-30.65622 0.037,-0.0616 4.5178,1.76922 9.9572,4.06841 l 9.8899,4.18036 -12.6169,17.35022 -12.617,17.35021 -6.3413,-4.78194 c -4.3397,-3.27253 -6.5075,-4.52066 -6.8677,-3.9542 -0.2895,0.45525 -0.5532,0.51337 -0.5861,0.12916 -0.1869,-2.18293 -1.2689,2.71125 -1.3128,5.9379 l -0.052,3.84217 -10.47552,8.90596 c -5.76151,4.89827 -10.47547,8.74087 -10.47547,8.5391 z"
       id="path81" />
    <path
       style="fill:#3672aa;fill-opacity:1;stroke:#2d2d2d;stroke-width:0.679715;stroke-dasharray:none"
       d="m 883.92566,659.89039 c 0,-3.67392 3.0982,-39.8965 7.81576,-92.29659 6.29607,-69.9334 9.51042,-112.37718 8.74249,-115.43985 -1.1337,-4.52147 -4.31477,0.77345 -15.12998,25.18397 -10.57468,23.86763 -14.71599,32.0515 -16.04344,31.70436 -0.66079,-0.1728 -8.01513,-4.35918 -16.34298,-9.30307 l -15.14153,-8.98888 0.45335,-4.54075 c 0.92776,-9.2923 3.22542,-22.84712 5.30737,-31.31031 3.00448,-12.21328 6.2832,-21.24504 11.85605,-32.65936 3.77818,-7.73849 5.21394,-10.01887 6.74813,-10.71792 1.07185,-0.48838 9.80782,-4.04148 19.41325,-7.89578 9.60544,-3.8543 17.68137,-7.13291 17.94653,-7.28582 0.9072,-0.52312 5.46455,4.09806 17.39663,17.64026 6.56567,7.45165 12.16186,13.54846 12.43599,13.54846 0.27413,0 1.89599,-0.87753 3.60414,-1.95006 1.70814,-1.07254 4.2557,-2.65213 5.66123,-3.51021 l 2.55551,-1.56015 -0.33828,2.63699 -0.3383,2.63699 13.00016,5.9379 c 15.18662,6.93659 21.07953,9.13405 22.78165,8.49525 1.83044,-0.68696 15.58413,-12.22545 21.78245,-18.27412 4.83556,-4.7188 5.41396,-5.56086 5.41396,-7.88156 0,-1.42906 0.1775,-2.5983 0.3945,-2.5983 0.217,0 3.0611,1.62949 6.3202,3.62109 l 5.9257,3.62108 1.9872,-2.04929 c 1.093,-1.1271 6.6091,-8.72942 12.2581,-16.89404 5.649,-8.16462 10.5467,-14.84476 10.8838,-14.84476 1.0339,0 24.903,14.80097 29.8542,18.51229 5.3161,3.98489 9.6985,9.74114 18.3487,24.1009 6.8705,11.4054 15.4927,28.84267 14.9052,30.14386 -0.8378,1.85566 -33.6805,31.9936 -34.8893,32.01602 -0.3992,0.007 -6.8436,-9.16869 -14.3208,-20.39132 -14.8607,-22.30442 -18.5561,-27.35284 -19.5657,-26.72888 -0.3662,0.22631 -0.6658,1.97477 -0.6658,3.88546 0,5.42471 6.3844,54.68002 13.257,102.27797 11.4172,79.07204 15.3509,106.16514 15.6813,108.00486 l 0.327,1.82116 -57.4205,0.45291 c -31.58127,0.2491 -72.11682,0.6535 -90.07898,0.89866 -31.79595,0.43399 -32.78196,1.27508 -32.78196,-0.0194 z m 91.26815,-8.29271 c 0.33287,3.16219 0.3571,-51.25117 0.23735,-106.8475 -0.16626,-77.19247 -0.41496,-101.28146 -1.05226,-101.91864 -0.64698,-0.64686 -0.96101,-0.37989 -1.39716,1.18773 -0.6963,2.50266 0.97319,176.83657 1.66829,178.5293 1.0551,2.56941 -0.5334,18.81608 0.0498,24.35641 z"
       id="path82"
       sodipodi:nodetypes="sssssscsssssssssscccsssssscsssssscssssscssssssssss" />
    <ellipse
       style="fill:#3672aa;fill-opacity:1;stroke:#2d2d2d;stroke-width:0.973;stroke-dasharray:none"
       id="path83"
       cx="980.33044"
       cy="467.38885"
       rx="2.3463504"
       ry="3.8282559" />
    <ellipse
       style="fill:#3672aa;fill-opacity:1;stroke:#2d2d2d;stroke-width:0.973;stroke-dasharray:none"
       id="path84"
       cx="980.49628"
       cy="497.01968"
       rx="2.4698427"
       ry="3.8282559" />
    <ellipse
       style="fill:#3672aa;fill-opacity:1;stroke:#2d2d2d;stroke-width:0.942163;stroke-dasharray:none"
       id="path84-9"
       cx="980.29773"
       cy="529.60278"
       rx="2.6704993"
       ry="3.3197415" />
    <ellipse
       style="fill:#3672aa;fill-opacity:1;stroke:#2d2d2d;stroke-width:0.973;stroke-dasharray:none"
       id="path84-2"
       cx="980.50421"
       cy="555.34772"
       rx="2.4698427"
       ry="3.8282559" />
    <ellipse
       style="fill:#3672aa;fill-opacity:1;stroke:#2d2d2d;stroke-width:0.973;stroke-dasharray:none"
       id="path84-1"
       cx="980.07343"
       cy="583.96228"
       rx="2.4698427"
       ry="3.8282559" />
    <ellipse
       style="fill:#3672aa;fill-opacity:1;stroke:#2d2d2d;stroke-width:0.973;stroke-dasharray:none"
       id="path84-1-2"
       cx="980.78625"
       cy="622.04938"
       rx="2.4698427"
       ry="3.8282559" />
    <path
       style="fill:#3672aa;fill-opacity:1;stroke:#2d2d2d;stroke-width:4.74698;stroke-dasharray:none"
       d="m 963.31006,496.47888 -27.46163,-45.67051 -24.48898,48.70509 h 15.42948 l 1.2869,-3.34672 7.34793,-19.1092"
       id="path88"
       sodipodi:nodetypes="cccccc" />
    <path
       style="fill:#3672aa;fill-opacity:1;stroke:#2d2d2d;stroke-width:4.54199;stroke-dasharray:none"
       d="m 936.46888,477.92999 13.45632,20.25293 13.18447,-1.59129"
       id="path89" />
    <path
       style="fill:#3672aa;fill-opacity:1;stroke:#2d2d2d;stroke-width:2.073;stroke-dasharray:none"
       d="m 942.72962,473.63519 -12.2251,0.61126 5.85058,-9.78008 z"
       id="path90" />
    <path
       style="fill:none;stroke:#000000;stroke-width:1px;stroke-linecap:butt;stroke-linejoin:miter;stroke-opacity:1"
       d="m 890.56621,661.90328 -7.40953,133.86546 84.96258,-14.81905 8.89144,-71.13147 16.79493,74.09528 76.07117,8.89143 -8.2652,-132.40111 c -57.1956,-1.0219 -118.04123,1.1018 -171.04539,1.49946 z"
       id="path91"
       sodipodi:nodetypes="cccccccc" />
    <path
       style="fill:#8a8a8a;fill-opacity:1;stroke:#2d2d2d;stroke-width:0.961263;stroke-dasharray:none"
       d="m 884.64145,790.44508 c 0.004,-5.85089 6.78561,-127.27223 7.12368,-127.54832 0.15564,-0.12712 38.13808,-0.53504 84.40542,-0.90649 l 84.12245,-0.67538 0.5685,4.73991 c 0.9521,7.93802 7.9157,124.72282 7.4625,125.15346 -0.4426,0.42064 -73.03457,-7.94229 -73.54321,-8.47251 -0.16048,-0.16729 -4.01797,-16.75331 -8.5722,-36.85783 -4.55424,-20.10452 -8.70915,-36.45675 -9.23313,-36.3383 -0.52399,0.11846 -2.89873,15.90075 -5.27721,35.07177 -2.37847,19.17101 -4.46745,35.01889 -4.64216,35.21749 -0.17471,0.19861 -17.78983,3.40259 -39.14472,7.11995 -21.35489,3.71736 -39.82735,6.93863 -41.04993,7.1584 -2.00987,0.36129 -2.22258,0.0104 -2.21999,-3.66215 z"
       id="path92" />
    <path
       style="fill:none;stroke:#000000;stroke-width:0.996714px;stroke-linecap:butt;stroke-linejoin:miter;stroke-opacity:1"
       d="m 1072.0806,487.80016 c 5.6924,27.02797 11.1718,57.28303 15.1066,79.66819 -3.1335,4.49471 -3.178,9.23838 -6.3975,16.95898 -1.3607,11.43525 -1.2873,7.46317 -2.417,17.57697 0.339,3.10221 2.1064,5.28531 5.0332,3.69905 l 7.9266,-27.43921 c -4.5147,18.60361 2.2615,-14.69607 -3.4598,15.34822 -0.5202,3.94109 -5.2465,24.53702 1.6435,24.53557 l 7.4397,-26.52463 -5.1248,24.94941 c 0.9003,1.97845 2.2257,3.48978 4.2903,1.5097 l 5.1021,-22.42045 -3.6237,17.48524 c 2.165,1.5096 3.5442,1.7572 5.4473,1.24887 l 4.0367,-28.7051 -2.6178,20.70339 c 1.9509,0.6962 4.8328,1.65381 5.1546,-1.42796 7.5476,-25.89964 8.6538,-24.34392 6.1813,-55.604 l -11.783,-89.22431 z"
       id="path93"
       sodipodi:nodetypes="cccccccccccccccccccc" />
    <path
       style="fill:none;stroke:#000000;stroke-width:0.925086px;stroke-linecap:butt;stroke-linejoin:miter;stroke-opacity:1"
       d="m 867.66071,513.18889 c -1.21934,26.87652 -1.80554,56.84261 -2.13516,78.99799 3.3566,3.92346 4.05296,8.50089 7.93175,15.52972 2.77213,10.86674 2.15748,7.03871 4.54495,16.65956 0.13431,3.04277 -1.1049,5.38863 -3.87805,4.24768 l -10.71836,-25.45118 c 6.51716,17.37078 -4.01001,-13.89681 5.14569,14.36657 1.00012,3.7383 7.97803,23.00575 1.96729,23.92647 l -10.16685,-24.63266 7.92904,23.42048 c -0.51114,2.0321 -1.45784,3.66975 -3.53338,2.03288 l -7.55876,-20.98 5.58492,16.40942 c -1.67944,1.74835 -2.84822,2.17216 -4.57885,1.93571 l -7.50054,-27.19489 5.15352,19.65347 c -1.60532,0.93375 -3.98667,2.24472 -4.69463,-0.68984 -10.17428,-24.01436 -10.92369,-22.36316 -13.09993,-52.89787 l -2.08884,-87.78641 z"
       id="path93-1"
       sodipodi:nodetypes="cccccccccccccccccccc" />
    <path
       style="fill:#f6c97d;fill-opacity:1;stroke:#2d2d2d;stroke-width:0.480631;stroke-dasharray:none"
       d="m 1093.4005,617.80269 c -0.3048,-0.3048 -0.5526,-1.00985 -0.5507,-1.5668 0,-0.86343 3.9326,-20.54454 4.7613,-23.84625 0.2043,-0.81409 0.067,-1.12386 -0.4987,-1.12386 -0.8533,0 -0.7875,-0.19618 -5.2129,15.56001 -3.0753,10.94953 -3.7324,11.90622 -4.9199,7.16254 -0.5499,-2.19674 -0.5745,-3.75699 -0.1281,-8.15048 0.6272,-6.17414 3.116,-20.03273 4.25,-23.6655 0.9536,-3.05509 0.9581,-4.24372 0.016,-4.24372 -0.4116,0 -0.741,0.43908 -0.741,0.98793 0,0.54337 -0.1938,0.98794 -0.4308,0.98794 -0.2369,0 -0.5791,0.92732 -0.7603,2.06071 -0.6544,4.09218 -6.4031,23.23358 -7.0526,23.48281 -0.3631,0.13936 -1.014,-0.0402 -1.4464,-0.39905 -1.5252,-1.26579 -1.7052,-2.8321 -0.922,-8.02225 0.4167,-2.76099 0.9783,-6.55435 1.248,-8.42968 0.5738,-3.98844 4.051,-15.3021 5.7525,-18.71645 l 1.1798,-2.36739 -1.2788,-7.26499 c -2.494,-14.1697 -7.2471,-39.57773 -10.1566,-54.29365 l -2.95,-14.92071 4.0864,-3.90281 c 9.5272,-9.09921 25.7817,-24.25408 25.8937,-24.14207 0.3193,0.31929 11.5762,87.34311 12.0178,92.9063 0.8355,10.52431 0.6515,20.91556 -0.4675,26.40668 -1.2236,6.0045 -6.3364,23.41583 -6.9956,23.82323 -0.2709,0.16743 -1.0389,0.19997 -1.7067,0.0723 -1.0548,-0.20163 -1.1801,-0.43502 -0.9549,-1.77778 0.4227,-2.51997 2.231,-17.27879 2.232,-18.21711 5e-4,-0.47544 -0.2896,-0.86444 -0.6448,-0.86444 -0.4704,0 -1.1499,3.65445 -2.5028,13.46064 -1.0214,7.40335 -1.9684,13.84964 -2.1044,14.32508 -0.2852,0.99686 -1.1175,1.09165 -2.8109,0.3201 l -1.1947,-0.54435 1.6655,-7.96329 c 1.8461,-8.82726 1.9423,-9.71918 1.048,-9.71799 -0.3995,5.4e-4 -1.3857,3.44422 -2.7937,9.75588 -1.1969,5.36528 -2.3682,10.45537 -2.603,11.3113 -0.4714,1.71897 -1.4695,2.37079 -2.3231,1.51716 z"
       id="path95" />
    <path
       style="fill:#f6c97d;fill-opacity:1;stroke:#2d2d2d;stroke-width:0.480631;stroke-dasharray:none"
       d="m 865.42125,641.72732 c -0.14182,-0.22946 -1.84334,-4.8419 -3.78115,-10.24984 -1.93782,-5.40796 -3.72063,-10.04011 -3.96181,-10.29367 -1.32701,-1.39523 -0.87579,1.11095 1.48183,8.2304 l 2.6399,7.97187 -1.10815,0.89732 c -0.60948,0.49353 -1.27976,0.89732 -1.4895,0.89732 -0.20975,0 -1.31756,-3.38986 -2.46181,-7.53302 -5.73158,-20.75334 -5.56614,-20.25052 -6.36852,-19.35533 -0.22818,0.25458 0.67408,4.52387 2.01483,9.53363 1.33543,4.98994 2.30408,9.39567 2.15256,9.79053 -0.15152,0.39486 -0.73682,0.64676 -1.30066,0.55979 -0.80574,-0.12429 -1.70872,-1.74407 -4.21874,-7.56767 -9.34122,-21.67292 -9.62946,-23.75896 -11.05696,-80.0229 -0.53077,-20.91956 -0.9712,-40.9737 -0.97874,-44.56475 l -0.0137,-6.52918 6.05112,3.68063 c 3.32811,2.02436 10.05226,6.53606 14.94255,10.02602 l 8.89143,6.34537 -0.10772,2.43079 c -0.35093,7.91953 -1.24572,40.3361 -1.57375,57.01431 l -0.38377,19.51176 1.09902,1.4819 c 3.42128,4.61321 11.24369,26.28712 11.27877,31.25057 0.0119,1.68938 -1.22124,3.41473 -2.06703,2.892 -0.47583,-0.29408 -8.55274,-19.06171 -9.25815,-21.51239 -0.60096,-2.08779 -1.95666,-3.94631 -2.59214,-3.55356 -0.43488,0.26877 -0.14294,1.48232 1.09536,4.55325 1.99705,4.95259 6.37195,19.20283 7.18938,23.41777 0.65772,3.39141 0.50776,8.73174 -0.25222,8.98189 -0.28156,0.0927 -2.71289,-5.16905 -5.40296,-11.69273 -2.87584,-6.9742 -5.15808,-11.86123 -5.53918,-11.86123 -0.35649,0 -0.64815,0.20462 -0.64815,0.45471 0,0.2501 1.77476,5.60616 3.94391,11.90236 3.08872,8.96535 3.83473,11.65165 3.4404,12.38847 -0.5331,0.9961 -1.22838,1.21591 -1.65624,0.52361 z"
       id="path96" />
    <path
       style="fill:none;stroke:#000000;stroke-width:0.953578px;stroke-linecap:butt;stroke-linejoin:miter;stroke-opacity:1"
       d="m 895.63095,794.37313 4.80522,166.05744 c -7.30812,17.51627 -22.07683,28.7953 -26.2125,40.31753 1.30064,8.5041 16.17744,5.6662 32.65935,1.8466 l 41.47963,-11.6491 c 11.49413,-7.30092 13.91315,-21.60817 1.80361,-34.29125 l 10.52192,-173.08244 z"
       id="path97"
       sodipodi:nodetypes="cccccccc" />
    <path
       style="fill:none;stroke:#000000;stroke-width:0.929166px;stroke-linecap:butt;stroke-linejoin:miter;stroke-opacity:1"
       d="m 1063.1102,792.63263 0.9091,163.95902 c 7.6095,17.05699 22.1843,27.73391 26.5441,38.9745 -0.9673,8.42865 -15.365,6.08215 -31.3385,2.81596 l -40.268,-10.22876 c -11.2939,-6.85228 -14.096,-20.89247 -2.8758,-33.7728 l -15.879,-170.4224 z"
       id="path97-0"
       sodipodi:nodetypes="cccccccc" />
    <path
       style="fill:none;stroke:#000000;stroke-width:1px;stroke-linecap:butt;stroke-linejoin:miter;stroke-opacity:1"
       d="m 900.98965,960.3687 c 16.47477,7.41707 32.94955,7.69538 49.42432,-3.49288 -16.22417,10.68706 -32.73501,10.48088 -49.42432,3.49288 z"
       id="path100"
       sodipodi:nodetypes="ccc" />
    <path
       style="fill:none;stroke:#000000;stroke-width:1px;stroke-linecap:butt;stroke-linejoin:miter;stroke-opacity:1"
       d="m 1016.2812,954.82661 c 15.5113,5.55611 31.0892,8.58228 46.927,1.72889 -16.8413,6.41806 -32.0396,3.25109 -46.927,-1.72889 z"
       id="path101"
       sodipodi:nodetypes="ccc" />
    <path
       style="fill:#f6c97d;fill-opacity:1;stroke:#2d2d2d;stroke-width:0.679715;stroke-dasharray:none"
       d="m 917.23156,964.02689 c -2.3053,-0.32079 -6.77251,-1.40276 -9.92713,-2.40437 -5.44538,-1.72894 -5.75242,-1.93492 -6.06656,-4.0698 -0.4428,-3.00925 -4.82852,-161.89221 -4.47845,-162.24228 0.44483,-0.44483 62.35779,-10.68447 62.69276,-10.36861 0.1683,0.1587 -2.03226,38.86947 -4.89012,86.02394 l -5.19612,85.7354 -5.23925,2.61864 c -8.49887,4.24783 -18.10887,5.92974 -26.89513,4.70708 z"
       id="path102" />
    <path
       style="fill:#f6c97d;fill-opacity:1;stroke:#2d2d2d;stroke-width:0.679715;stroke-dasharray:none"
       d="m 1030.7504,957.82663 c -3.2659,-0.72011 -7.7034,-1.82813 -9.8612,-2.46226 l -3.9233,-1.15297 -0.4048,-3.64515 c -1.8212,-16.40018 -15.2237,-164.12876 -14.9181,-164.43438 0.4168,-0.41678 30.1881,2.96119 49.0168,5.56163 l 11.1772,1.5437 0.5126,28.29085 c 0.2819,15.55996 0.439,52.16929 0.3493,81.35407 l -0.1633,53.06323 -4.1915,1.32585 c -6.2714,1.98381 -19.874,2.25762 -27.5937,0.55543 z"
       id="path103" />
    <path
       style="fill:#1e1402;fill-opacity:1;stroke:#2d2d2d;stroke-width:1.35943;stroke-dasharray:none"
       d=""
       id="path104" />
    <path
       style="fill:#1e1402;fill-opacity:1;stroke:#2d2d2d;stroke-width:0.679715;stroke-dasharray:none"
       d="m 1066.3778,998.94015 c -4.0343,-0.75079 -16.4192,-3.70575 -27.522,-6.56659 -19.5685,-5.04217 -20.2712,-5.28304 -22.9376,-7.86257 -4.3995,-4.25613 -5.742,-7.40404 -5.7528,-13.48899 -0.01,-4.38355 0.3124,-5.8669 1.9601,-9.0815 3.3381,-6.51261 2.9985,-6.3791 10.5302,-4.13988 13.1084,3.89715 25.8786,4.40522 35.3392,1.40598 2.4974,-0.79175 4.7465,-1.44359 4.998,-1.44855 0.2514,-0.005 1.4699,1.79855 2.7076,4.0078 2.7604,4.92705 5.6463,8.93524 12.9512,17.9879 7.2251,8.95364 10.7791,14.27025 10.7791,16.12478 0,0.81007 -0.6611,2.0717 -1.4691,2.80363 -2.1206,1.92094 -12.0129,2.03914 -21.5839,0.25799 z"
       id="path105" />
    <path
       style="fill:#1e1402;fill-opacity:1;stroke:#2d2d2d;stroke-width:0.679715;stroke-dasharray:none"
       d="m 877.67015,1004.1975 c -1.01104,-0.5493 -2.02938,-1.4968 -2.26297,-2.1056 -0.67921,-1.77 2.4713,-7.15293 9.42515,-16.10375 7.61891,-9.80685 13.03484,-17.73548 14.81951,-21.69495 l 1.28185,-2.84393 6.0532,2.11513 c 5.08877,1.77813 7.38884,2.16258 14.43613,2.41302 9.98906,0.35497 14.58391,-0.60917 23.31223,-4.8916 l 5.84779,-2.86915 1.31404,1.68727 c 0.72272,0.928 2.17788,3.41625 3.2337,5.52944 1.55559,3.11349 1.91574,4.7696 1.89892,8.73222 -0.0243,5.71905 -1.45866,8.98305 -5.78876,13.17252 -2.66203,2.57556 -3.70008,2.95251 -23.63617,8.5831 -31.41339,8.87208 -44.76518,11.08508 -49.93462,8.27628 z"
       id="path106" />
    <path
       style="fill:none;stroke:#000000;stroke-width:1px;stroke-linecap:butt;stroke-linejoin:miter;stroke-opacity:1"
       d="m 900.46571,921.42303 c 17.22882,1.69971 34.34943,1.55987 51.34541,-0.69857 -17.00812,2.48031 -34.10474,3.10183 -51.34541,0.69857 z"
       id="path107"
       sodipodi:nodetypes="ccc" />
    <path
       style="fill:#ffffff;fill-opacity:1;stroke:#2d2d2d;stroke-width:0.240316;stroke-dasharray:none"
       d="m 918.40939,963.70964 c -4.08842,-0.51512 -12.67118,-2.82416 -15.13135,-4.07083 -1.30096,-0.65924 -1.41881,-0.85527 -1.60636,-2.67211 -0.13895,-1.34595 -1.10261,-30.38491 -1.10261,-33.22596 v -1.65932 l 3.64302,0.41981 c 8.3874,0.96655 20.691,1.25897 29.69985,0.70589 4.33099,-0.2659 12.66289,-1.08051 15.28269,-1.49419 0.86628,-0.13679 1.63237,-0.1914 1.70241,-0.12136 0.07,0.0701 -0.33528,7.77108 -0.90072,17.11342 -0.56545,9.34233 -1.02589,17.13149 -1.02321,17.30924 0.006,0.39685 -8.29262,4.44772 -10.91325,5.32717 -2.51489,0.84397 -5.25086,1.53538 -7.97617,2.01569 -2.6681,0.47022 -9.17964,0.66686 -11.6743,0.35255 z"
       id="path108" />
    <path
       style="fill:none;stroke:#000000;stroke-width:1px;stroke-linecap:butt;stroke-linejoin:miter;stroke-opacity:1"
       d="m 1013.2859,917.23157 c 15.6936,1.56799 31.6767,2.60524 50.1229,-0.87322 -17.6956,2.02011 -34.2886,2.11056 -50.1229,0.87322 z"
       id="path109"
       sodipodi:nodetypes="ccc" />
    <path
       style="fill:#ffffff;fill-opacity:1;stroke:#2d2d2d;stroke-width:0.169929;stroke-dasharray:none"
       d="m 1036.6883,958.26316 c -2.8734,-0.28658 -5.201,-0.7049 -9.1689,-1.64779 -3.6998,-0.8792 -9.8826,-2.57817 -10.0721,-2.76772 -0.1284,-0.12835 -0.313,-1.74871 -1.0875,-9.54622 -1.3396,-13.48631 -2.5048,-26.2127 -2.4088,-26.30872 0.053,-0.0531 1.4577,0.0296 3.1213,0.18372 17.049,1.57944 29.5696,1.42242 42.2052,-0.52931 1.5699,-0.24249 2.8886,-0.40663 2.9305,-0.36476 0.042,0.0419 0.022,8.69313 -0.045,19.22501 l -0.1211,19.14887 -2.2855,0.72048 c -2.5015,0.78858 -5.3862,1.41577 -7.9614,1.73098 -2.0751,0.25399 -12.9924,0.36633 -15.1067,0.15546 z"
       id="path110" />
    <path
       style="fill:#7f7f7f;fill-opacity:1;stroke:#2d2d2d;stroke-width:3.95175;stroke-dasharray:none"
       d="m 325.96082,773.78713 c 0.33738,-5.56949 1.84447,-34.25552 3.3491,-63.74673 1.50463,-29.49121 3.05844,-53.94265 3.4529,-54.33654 0.84826,-0.84703 152.63576,-0.60849 153.48547,0.24121 0.67748,0.67748 8.08805,124.30338 7.489,124.93431 -0.37151,0.39127 -66.68728,-7.61286 -67.16619,-8.10678 -0.11752,-0.12121 -3.62606,-16.22497 -7.79675,-35.78612 -4.17068,-19.56115 -7.76732,-35.75097 -7.99252,-35.97737 -1.09708,-1.10292 -1.75436,3.05281 -5.47473,34.61466 -2.20198,18.68054 -4.14198,34.10589 -4.31111,34.27854 -0.33564,0.3426 -73.24123,14.01118 -74.73296,14.01118 -0.54253,0 -0.66567,-4.12615 -0.30221,-10.12636 z"
       id="path113" />
    <path
       style="fill:#ffffff;fill-opacity:1;stroke:#2d2d2d;stroke-width:1.39715;stroke-dasharray:none"
       d="m 370.973,373.39479 -15.68935,-0.18005 7.65572,-4.71539 7.65572,-4.71539 5.76326,-0.22458 c 3.16979,-0.12351 19.02204,-0.2414 35.22723,-0.26196 l 29.46397,-0.0374 8.17186,5.10586 c 4.49452,2.80823 8.17186,5.16593 8.17186,5.23933 0,0.17875 -66.65009,0.0165 -86.42027,-0.21042 z"
       id="path114" />
    <path
       style="fill:none;stroke:#000000;stroke-width:1px;stroke-linecap:butt;stroke-linejoin:miter;stroke-opacity:1"
       d="m 331.82406,785.89909 -7.68434,163.46701 c -8.73198,7.144 -16.95243,14.15991 -14.67012,25.84735 4.23661,19.13979 13.72639,16.27164 27.94308,18.163 18.56784,1.32544 47.77658,3.15764 46.63001,-18.163 0.12993,-7.04141 0.6018,-16.41328 -13.09832,-24.45019 l 23.05304,-176.73998 z"
       id="path115"
       sodipodi:nodetypes="cccccccc" />
    <path
       style="fill:none;stroke:#000000;stroke-width:1.00828px;stroke-linecap:butt;stroke-linejoin:miter;stroke-opacity:1"
       d="m 491.84813,783.80135 9.13275,165.22655 c 8.84,7.14988 17.1647,14.17456 14.971,26.01175 -4.0945,19.38927 -13.6596,16.56938 -27.93595,18.60212 -18.65548,1.49731 -48.00442,3.59705 -47.03526,-17.97126 -0.19121,-7.1189 -0.74631,-16.59138 12.95772,-24.8339 L 429.24074,772.31893 Z"
       id="path115-7"
       sodipodi:nodetypes="cccccccc" />
    <path
       style="fill:none;stroke:#000000;stroke-width:1px;stroke-linecap:butt;stroke-linejoin:miter;stroke-opacity:1"
       d="m 324.42185,950.0104 c 15.56,3.26082 31.12001,3.93589 46.68002,0.61746 -15.60639,3.35577 -31.73067,3.91123 -46.68002,-0.61746 z"
       id="path116"
       sodipodi:nodetypes="ccc" />
    <path
       style="fill:none;stroke:#000000;stroke-width:1px;stroke-linecap:butt;stroke-linejoin:miter;stroke-opacity:1"
       d="m 454.33556,951.12183 c 15.4895,2.40999 31.10855,2.35851 46.92702,-1.4819 -15.13857,3.01282 -30.80059,3.40837 -46.92702,1.4819 z"
       id="path117"
       sodipodi:nodetypes="ccc" />
    <path
       style="fill:none;stroke:#000000;stroke-width:1px;stroke-linecap:butt;stroke-linejoin:miter;stroke-opacity:1"
       d="m 326.23545,913.73868 c 16.41804,2.47318 32.7152,2.64956 48.90039,0.69857 -16.30013,2.46343 -32.60026,2.1064 -48.90039,-0.69857 z"
       id="path118"
       sodipodi:nodetypes="ccc" />
    <path
       style="fill:none;stroke:#000000;stroke-width:1px;stroke-linecap:butt;stroke-linejoin:miter;stroke-opacity:1"
       d="m 448.13713,911.64295 c 17.12104,0.43721 34.2182,0.67541 50.99615,-1.74645 -16.36216,2.74645 -33.47193,2.95102 -50.99615,1.74645 z"
       id="path119"
       sodipodi:nodetypes="ccc" />
    <path
       style="fill:#ffffff;fill-opacity:1;stroke:#2d2d2d;stroke-width:1.39715;stroke-dasharray:none"
       d="m 459.2355,950.96201 c -2.34868,-0.22808 -4.36961,-0.51397 -4.49094,-0.63531 -0.24209,-0.24209 -5.48586,-37.65138 -5.30329,-37.83395 0.0621,-0.0621 3.25202,0.0533 7.08873,0.25649 11.49289,0.60858 26.99567,0.0167 37.45124,-1.42981 l 4.27874,-0.59197 0.01,0.89435 c 0,0.4919 0.4646,9.06771 1.0258,19.05736 0.5613,9.98965 0.9125,18.27207 0.7805,18.40538 -0.3115,0.31464 -8.88627,1.54264 -14.03685,2.01023 -5.24055,0.47576 -21.35515,0.39593 -26.79943,-0.13277 z"
       id="path120" />
    <path
       style="fill:#ffffff;fill-opacity:1;stroke:#2d2d2d;stroke-width:1.39715;stroke-dasharray:none"
       d="m 343.17594,951.93089 c -0.67238,-0.0648 -2.95149,-0.28365 -5.06468,-0.48643 -3.86302,-0.3707 -12.99301,-1.82534 -13.20398,-2.10373 -0.0622,-0.0821 0.24062,-7.37954 0.67297,-16.21654 0.43234,-8.837 0.79593,-16.67374 0.80796,-17.41497 0.0202,-1.24189 0.0873,-1.33128 0.85481,-1.13865 2.27789,0.57172 12.40217,1.63442 18.66493,1.95919 7.59299,0.39374 17.59651,0.0546 24.8936,-0.84399 2.19175,-0.2699 4.00908,-0.46475 4.03852,-0.43301 0.21422,0.231 -4.54021,34.67057 -4.80928,34.83687 -0.4983,0.30796 -7.56342,1.33315 -11.83545,1.71739 -3.45132,0.31042 -12.32243,0.38358 -15.0194,0.12387 z"
       id="path121" />
    <path
       style="fill:#1e1402;fill-opacity:1;stroke:#2d2d2d;stroke-width:1.39715;stroke-dasharray:none"
       d="m 343.69987,993.15826 c -7.85796,-0.59961 -18.23841,-1.65866 -20.19874,-2.06074 -5.1499,-1.05629 -8.29208,-3.38935 -10.51812,-7.80969 -3.15552,-6.26601 -3.98057,-12.92272 -2.18092,-17.59611 1.59589,-4.14426 3.95155,-7.19388 9.09663,-11.77643 l 3.79265,-3.37797 3.75427,0.96678 c 6.99954,1.80249 10.87749,2.22163 20.44569,2.20987 8.78895,-0.0108 12.59485,-0.35027 19.95714,-1.78006 l 2.842,-0.55193 2.22268,1.49697 c 4.59648,3.09571 8.09446,7.50106 9.60899,12.10154 0.86874,2.63887 1.07566,13.01187 0.31291,15.68679 -1.8021,6.31988 -7.36191,10.17696 -17.13,11.88381 -3.03504,0.53034 -17.70683,0.93517 -22.00518,0.60717 z"
       id="path122" />
    <path
       style="fill:#1e1402;fill-opacity:1;stroke:#2d2d2d;stroke-width:1.39715;stroke-dasharray:none"
       d="m 461.41009,993.32444 c -7.25435,-0.92847 -12.37632,-3.00268 -15.74855,-6.37757 -3.20719,-3.20974 -3.72674,-4.82191 -3.90971,-12.13202 -0.12637,-5.049 -0.05,-6.19032 0.58168,-8.68812 1.32209,-5.22816 4.67088,-9.78375 9.6724,-13.15804 1.74219,-1.17537 2.22939,-1.35201 3.08345,-1.11793 2.69706,0.7392 12.40962,1.4502 19.76834,1.44712 8.58554,-0.004 14.58099,-0.56319 22.09916,-2.0627 l 4.46012,-0.88957 2.4361,1.99305 c 5.5872,4.57105 9.7982,9.944 11.0841,14.14258 1.7634,5.7574 -0.6635,15.73774 -4.9998,20.56074 -2.8768,3.19972 -5.9143,4.19596 -16.04346,5.262 -13.67531,1.43924 -26.14989,1.83113 -32.48383,1.02046 z"
       id="path123" />
    <path
       style="fill:#f6c97d;fill-opacity:1;stroke:#2d2d2d;stroke-width:1.39715;stroke-dasharray:none"
       d="m 341.60414,914.74423 c -4.91178,-0.3435 -14.76333,-1.48979 -14.98123,-1.74315 -0.0924,-0.10748 5.38733,-118.15235 5.79408,-124.81595 l 0.10565,-1.73077 30.12582,-5.75014 c 16.5692,-3.16257 30.20925,-5.66669 30.31124,-5.56471 0.10198,0.10198 -3.87058,31.28024 -8.8279,69.28502 l -9.01333,69.0996 -1.03918,0.25891 c -3.81812,0.9513 -24.05297,1.5502 -32.47515,0.96119 z"
       id="path124" />
    <path
       style="fill:#f6c97d;fill-opacity:1;stroke:#2d2d2d;stroke-width:1.39715;stroke-dasharray:none"
       d="m 451.71734,911.05871 c -1.48885,-0.0791 -2.70699,-0.29614 -2.70699,-0.48242 0,-0.18628 -4.16526,-30.43051 -9.25614,-67.20938 -5.09088,-36.77888 -9.25615,-67.07681 -9.25615,-67.32874 0,-0.35754 2.58691,-0.13155 11.78849,1.02981 6.48366,0.81833 15.16785,1.88709 19.29819,2.37502 7.07483,0.83578 28.88607,4.56032 29.40449,5.0212 0.17035,0.15143 5.86785,100.61315 6.99465,123.33371 l 0.078,1.56894 -3.30639,0.40969 c -7.09037,0.87855 -13.95907,1.21544 -26.88336,1.31858 -7.39618,0.059 -14.66575,0.0426 -16.15459,-0.0364 z"
       id="path125" />
    <path
       style="fill:none;stroke:#000000;stroke-width:1.04432px;stroke-linecap:butt;stroke-linejoin:miter;stroke-opacity:1"
       d="m 505.60538,503.61908 c 5.4185,31.17178 10.6341,66.0654 14.3795,91.88253 -2.9827,5.18382 -3.0251,10.65476 -6.0896,19.55905 -1.2951,13.18844 -1.2252,8.60739 -2.3006,20.27179 0.3227,3.57783 2.0049,6.09563 4.7909,4.26617 l 7.545,-31.64606 c -4.2974,21.45583 2.1526,-16.94919 -3.2933,17.70133 -0.4951,4.54532 -4.9939,28.29893 1.5644,28.29726 l 7.0815,-30.59126 -4.8781,28.77453 c 0.857,2.28178 2.1187,4.02482 4.0839,1.74116 l 4.8564,-25.85785 -3.4493,20.16599 c 2.0608,1.74105 3.3736,2.02661 5.1851,1.44034 l 3.8423,-33.10603 -2.4918,23.87753 c 1.8571,0.80295 4.6002,1.90737 4.9065,-1.64687 7.1843,-29.87045 8.2372,-28.07621 5.8837,-64.12894 L 536.00618,471.716 Z"
       id="path93-7"
       sodipodi:nodetypes="cccccccccccccccccccc" />
    <path
       style="fill:#f6c97d;fill-opacity:1;stroke:#2d2d2d;stroke-width:1.97587;stroke-dasharray:none"
       d="m 525.71468,653.01315 c -0.403,-0.75303 0.012,-4.17385 1.7532,-14.44858 2.6863,-15.85242 2.6392,-15.43783 1.7527,-15.43783 -0.6656,0 -1.1371,1.82599 -6.4827,25.10542 -0.9319,4.05858 -1.2227,4.74427 -1.7769,4.19008 -1.1306,-1.13058 -1.7475,-5.79999 -1.423,-10.77168 0.3617,-5.54424 2.9657,-24.09651 3.9419,-28.08535 1.3347,-5.45364 1.3865,-5.99848 0.5697,-5.99848 -0.9285,0 -1.3085,1.32011 -5.2617,18.27683 -1.6785,7.19959 -3.3024,13.24564 -3.6087,13.43566 -0.8283,0.51384 -2.2489,-1.00753 -2.5768,-2.75966 -0.2282,-1.21889 0.935,-13.25033 1.9395,-20.0614 0.3815,-2.5866 4.2931,-16.48799 5.2449,-18.63969 l 0.9965,-2.25274 -1.7583,-11.90586 c -3.2058,-21.70655 -6.1697,-40.83704 -9.1431,-59.01357 -1.6163,-9.87996 -2.9387,-18.34122 -2.9387,-18.8028 0,-0.46451 0.734,-1.18925 1.6438,-1.62311 0.9041,-0.43113 7.5951,-4.2658 14.8689,-8.52148 7.2738,-4.25569 13.3056,-7.65705 13.4041,-7.55859 0.4198,0.4198 9.598,86.92869 10.1288,95.46894 0.7857,12.64014 0.386,25.67734 -0.9843,32.10795 -2.1638,10.15477 -5.5985,23.72998 -6.1427,24.2789 -0.346,0.34892 -0.9588,0.41534 -1.587,0.172 l -1.0233,-0.39641 0.8796,-8.32248 c 1.6523,-15.63368 1.6179,-14.99106 0.8041,-14.99106 -0.8524,0 -0.7004,-0.95972 -2.9139,18.40033 -1.5376,13.44831 -1.6772,14.20076 -2.6312,14.18589 -0.5541,-0.009 -1.3734,-0.29409 -1.8205,-0.63432 -0.7486,-0.56959 -0.6815,-1.38065 0.8467,-10.23414 1.9626,-11.37026 1.8683,-10.35648 0.9637,-10.35648 -0.8535,0 -0.7343,-0.46571 -2.9697,11.60826 -2.6296,14.20264 -2.7178,14.57207 -3.479,14.57207 -0.3787,0 -0.9262,-0.44398 -1.2166,-0.98662 z"
       id="path133" />
    <path
       style="fill:#f6c97d;fill-opacity:1;stroke:#2d2d2d;stroke-width:2.0465;stroke-dasharray:none"
       d="m 289.863,644.89335 c 0.36783,-0.88504 -0.011,-4.90549 -1.60028,-16.98129 -2.45199,-18.63121 -2.40898,-18.14394 -1.59981,-18.14394 0.60754,0 1.0379,2.14607 5.91721,29.50617 0.85063,4.77001 1.11604,5.5759 1.62191,4.92455 1.03198,-1.32875 1.59506,-6.81667 1.29888,-12.65985 -0.33016,-6.51609 -2.70701,-28.32041 -3.59806,-33.00845 -1.21827,-6.40962 -1.26556,-7.04995 -0.52001,-7.04995 0.84752,0 1.19437,1.55151 4.80272,21.48058 1.53211,8.46162 3.01434,15.5675 3.29393,15.79081 0.75603,0.6039 2.05273,-1.18414 2.35204,-3.24341 0.20827,-1.43254 -0.85346,-15.57298 -1.77034,-23.57798 -0.34822,-3.04 -3.91862,-19.37818 -4.78738,-21.90705 l -0.90959,-2.64761 1.60495,-13.99286 c 2.92615,-25.51152 5.63151,-47.9954 8.34554,-69.35811 1.47531,-11.61183 2.68236,-21.55625 2.68236,-22.09875 0,-0.54595 -0.66998,-1.39774 -1.50041,-1.90763 -0.82524,-0.50672 -6.93259,-5.01357 -13.5719,-10.01521 -6.63931,-5.00169 -12.14497,-8.99926 -12.23487,-8.88356 -0.38319,0.4934 -8.76078,102.1665 -9.24529,112.20377 -0.71716,14.85585 -0.35232,30.17835 0.89845,37.73619 1.97505,11.93479 5.11016,27.88962 5.60687,28.53476 0.31583,0.41009 0.87518,0.48814 1.44858,0.20215 l 0.93403,-0.46589 -0.80286,-9.78134 c -1.50819,-18.37413 -1.47679,-17.61886 -0.73397,-17.61886 0.77805,0 0.63931,-1.12794 2.65973,21.62575 1.40347,15.80567 1.53089,16.69003 2.40168,16.67254 0.50576,-0.0107 1.2536,-0.34563 1.6617,-0.74552 0.6833,-0.66942 0.62205,-1.62265 -0.77285,-12.02808 -1.7914,-13.36336 -1.70532,-12.17187 -0.87964,-12.17187 0.77906,0 0.67026,-0.54735 2.71066,13.64307 2.40022,16.69224 2.48073,17.12644 3.17554,17.12644 0.34567,0 0.8454,-0.52181 1.11048,-1.15957 z"
       id="path133-2" />
    <path
       style="fill:none;stroke:#000000;stroke-width:0.933086px;stroke-linecap:butt;stroke-linejoin:miter;stroke-opacity:1"
       d="m 1397.6843,226.89165 -3.9769,66.66868 -15.9073,25.6418 25.0002,8.3174 17.9285,37.14834 41.5927,11.80669 6.5614,24.47751 89.9849,-20.85121 0.9374,-158.65056 z"
       id="path134"
       sodipodi:nodetypes="cccccccccc" />
  </g>
  <g
     inkscape:groupmode="layer"
     id="layer2"
     inkscape:label="BACK VIEW">
    <path
       style="fill:none;stroke:#000000;stroke-width:1.13682px;stroke-linecap:butt;stroke-linejoin:miter;stroke-opacity:1"
       d="m 481.47607,374.91269 35.56951,28.54672 c 15.9731,28.56942 21.1393,55.17394 22.7086,81.12449 l -35.7907,21.39896 -27.15154,-61.9612 c 3.2972,76.38426 12.2597,141.35606 15.95098,210.3019 l -166.83085,-0.88988 c 4.42047,-72.06958 5.31722,-142.67234 13.57449,-216.84984 l -32.81288,50.13674 -38.3981,-36.13459 c 7.904,-18.36842 17.6541,-36.73683 32.1148,-55.10525 l 34.90644,-21.06639 79.89937,0.14553 24.17485,0.40865 20.34133,-0.21014 z"
       id="path76-0"
       sodipodi:nodetypes="cccccccccccccccc"
       inkscape:label="back" />
    <path
       style="fill:#1d1d1d;fill-opacity:1;stroke:#2d2d2d;stroke-width:0.473;stroke-dasharray:none"
       d="m 391.63804,343.05273 39.6087,0.0328 c 21.71377,0.67429 32.29,-0.34136 51.78672,-10.4666 8.33637,-4.98595 13.04685,-11.16741 20.68072,-19.09792 6.056,-7.26725 11.0296,-15.56785 14.874,-32.51364 5.3509,-13.2802 3.7981,-26.25447 5.4334,-58.11248 -1.651,-20.34533 -8.62,-33.24533 -16.7949,-44.45717 -9.2801,-19.1934 -13.61604,-31.03686 -65.69782,-45.4451 -37.31106,0.55988 -72.49752,5.01486 -104.22736,15.80699 -25.06528,22.12055 -39.07804,43.92587 -48.90288,69.64956 l -0.49397,54.35108 34.20368,49.98158 c 39.27014,16.07481 43.5617,17.21358 51.01742,19.22302 z"
       id="path2-0"
       inkscape:label="hair"
       sodipodi:nodetypes="cccccccccccccc" />
    <path
       style="fill:none;stroke:#000000;stroke-width:0.944001px;stroke-linecap:butt;stroke-linejoin:miter;stroke-opacity:1"
       d="m 331.22181,653.41828 -6.7743,131.96055 77.67862,-14.44412 8.12916,-69.33184 15.35508,72.22066 69.54951,8.66648 -7.55666,-129.05135 c -52.29216,-0.99604 -107.92137,-0.40798 -156.38141,-0.0204 z"
       id="path91-0"
       sodipodi:nodetypes="cccccccc" />
    <path
       style="fill:none;stroke:#000000;stroke-width:1px;stroke-linecap:butt;stroke-linejoin:miter;stroke-opacity:1"
       d="m 370.85488,362.80533 -18.02985,11.11429 108.17911,0.98794 -19.75874,-12.34922 z"
       id="path111"
       sodipodi:nodetypes="ccccc" />
    <path
       style="fill:#3672aa;fill-opacity:1;stroke:#2d2d2d;stroke-width:3.95175;stroke-dasharray:none"
       d="m 464.7089,652.44271 c -13.31245,-0.38744 -49.72698,-0.45654 -80.92118,-0.15356 l -56.71673,0.55086 0.64312,-11.76933 c 0.35371,-6.47313 1.7598,-35.10935 3.12463,-63.63603 2.78411,-58.19123 4.65018,-87.67552 7.46792,-117.99456 2.21935,-23.88038 2.19218,-23.28044 1.05446,-23.28044 -0.47724,0 -8.04706,10.93748 -16.82182,24.3055 l -15.95411,24.30549 -4.66581,-4.25137 c -13.96196,-12.7218 -31.83407,-29.9638 -31.83407,-30.71171 0,-1.7712 9.91988,-21.40046 15.38466,-30.44284 3.11965,-5.16197 7.97357,-12.50433 10.7865,-16.31635 4.80511,-6.51179 6.13531,-7.54245 21.99496,-17.04192 l 16.88055,-10.11095 h 72.95063 72.95064 l 17.77113,14.31693 17.7712,14.31693 4.6493,9.62416 c 8.5451,17.68844 14.1697,38.05296 16.5547,59.93895 0.586,5.37715 0.9451,9.86538 0.798,9.97385 -2.3388,1.72501 -33.8502,20.10337 -34.0782,19.8754 -0.1749,-0.17491 -6.2453,-13.80887 -13.48986,-30.29769 -7.24453,-16.48881 -13.70762,-30.15824 -14.36243,-30.37651 -0.89435,-0.29812 -1.05172,1.65637 -0.6325,7.8559 0.30694,4.53901 1.00554,15.58819 1.55245,24.55372 1.2683,20.79125 2.18034,32.12411 6.91708,85.95052 4.16386,47.31629 6.89471,82.22638 6.8974,88.17338 10e-4,2.40155 -0.43273,3.64168 -1.23324,3.52543 -0.67921,-0.0986 -12.12693,-0.49633 -25.43938,-0.88376 z"
       id="path112" />
    <path
       style="fill:none;stroke:#000000;stroke-width:1px;stroke-linecap:butt;stroke-linejoin:miter;stroke-opacity:1"
       d="m 374.06568,363.05231 c -1.16744,-8.97794 -25.48677,-16.39738 -50.52646,-25.66154 l -30.13689,-36.12946 -12.05045,-17.63907 -9.78008,-7.33505 c -0.82407,-6.70914 -1.35081,-13.63096 4.54075,-16.41656 3.88054,-1.75273 8.21192,-0.46846 11.35188,0.34929 l 0.17464,13.09832 34.05563,49.24967 52.9172,20.60802 c 29.84323,1.12131 54.85441,2.26395 89.5925,-1.92108 l 23.40233,-10.12937 c 26.05395,-24.60545 28.71975,-37.76864 33.35705,-57.45795 l 2.2704,-18.68694 10.228,1.17136 c 4.188,3.02717 5.5686,5.93084 6.0614,8.95801 0.5001,4.70796 -4.1187,8.55606 -5.9452,11.40303 -2.7383,4.69178 -3.6818,6.79504 -5.2795,10.25286 -1.9186,20.43927 -27.3485,39.81835 -33.53173,50.82147 -32.51967,16.52417 -32.84281,13.86992 -53.2665,25.32341 z"
       id="path126"
       sodipodi:nodetypes="ccccccccccccccccccccc" />
    <path
       style="fill:#f6c97d;fill-opacity:1;stroke:#2d2d2d;stroke-width:2.79431;stroke-dasharray:none"
       d="m 371.57975,358.01416 c -4.51177,-4.68936 -11.44054,-8.08589 -32.16425,-15.76713 l -15.4616,-5.73085 -14.57721,-17.47773 c -8.01746,-9.61275 -17.40901,-21.58755 -20.87011,-26.61067 -5.13911,-7.45843 -7.22004,-9.8394 -11.34961,-12.98605 l -5.0567,-3.85312 -0.002,-4.75008 c -0.004,-8.89327 3.95906,-12.23644 12.4848,-10.53129 l 2.18305,0.43661 v 6.44868 6.44867 l 16.84477,24.37604 c 9.26462,13.40681 17.04502,24.59586 17.28978,24.86454 0.24475,0.26868 12.23349,5.11707 26.64164,10.77418 l 26.19664,10.28568 21.3066,0.70138 c 15.52729,0.51112 25.85425,0.47645 38.07244,-0.12784 28.16645,-1.39304 28.78045,-1.50113 43.13304,-7.59359 l 12.39565,-5.26177 6.39157,-6.6857 c 6.80483,-7.11795 13.08073,-15.16942 16.54803,-21.22989 5.2678,-9.20745 9.2757,-22.91046 11.1909,-38.26109 l 1.1736,-9.40689 3.484,0.19734 c 5.1579,0.29215 8.0358,1.97165 10.0025,5.83726 2.0171,3.96464 1.5864,5.8376 -2.6032,11.32234 -3.5939,4.70499 -6.8884,11.40317 -7.8416,15.94308 -1.8921,9.01214 -7.3991,17.68615 -20.9957,33.07013 -4.7799,5.40826 -9.41065,10.84414 -10.29047,12.07974 -1.8293,2.569 -12.54261,8.18718 -30.10449,15.78711 -5.95537,2.57719 -13.83619,6.23017 -17.51294,8.11771 l -6.685,3.43191 -33.13389,-0.0763 -33.13388,-0.0763 z"
       id="path127" />
    <path
       style="fill:none;stroke:#000000;stroke-width:1px;stroke-linecap:butt;stroke-linejoin:miter;stroke-opacity:1"
       d="m 395.39457,431.72057 -47.50324,140.41397 38.42174,6.28719 6.98577,-34.23027 h 30.03881 l 5.58861,32.13454 34.92885,-10.47866 -50.29754,-134.12677 z"
       id="path128" />
    <path
       style="fill:none;stroke:#000000;stroke-width:1px;stroke-linecap:butt;stroke-linejoin:miter;stroke-opacity:1"
       d="m 399.99903,476.66507 -9.38541,47.42098 32.60193,-0.49397 -11.85525,-48.90288 z"
       id="path129" />
    <path
       style="fill:#f45353;fill-opacity:1;stroke:#2d2d2d;stroke-width:1.97587;stroke-dasharray:none"
       d="m 366.49691,574.46347 c -9.46064,-1.57481 -17.2721,-2.93982 -17.35881,-3.03336 -0.0867,-0.0935 10.43219,-31.4568 23.37532,-69.69614 l 23.53297,-69.52606 h 8.43016 8.43017 l 24.11513,64.3394 c 13.26333,35.38666 24.50865,65.34976 24.98959,66.58465 l 0.87446,2.24525 -16.62438,4.98067 c -9.14341,2.73937 -16.67572,4.84101 -16.73846,4.67031 -0.0627,-0.1707 -1.23115,-6.75666 -2.59648,-14.63545 -1.36532,-7.8788 -2.61048,-14.93947 -2.76701,-15.69039 l -0.28459,-1.3653 -15.61048,0.13038 -15.61048,0.13038 -3.45091,16.91842 c -3.2202,15.78731 -3.51958,16.91481 -4.47798,16.86447 -0.56489,-0.0297 -8.76759,-1.34243 -18.22822,-2.91723 z m 57.20935,-50.45592 c 0.23894,-0.23935 -11.41368,-49.77485 -11.78925,-50.11635 -0.17991,-0.1636 -12.12777,2.07605 -12.36948,2.31868 -0.23957,0.24048 -9.67486,47.13533 -9.67486,48.08555 0,0.42139 33.40935,0.13712 33.83359,-0.28788 z"
       id="path130" />
    <path
       style="fill:#c953f4;fill-opacity:1;stroke:#2d2d2d;stroke-width:3.95175;stroke-dasharray:none"
       d="m 365.53186,572.90054 c -7.54628,-1.27867 -13.92732,-2.53168 -14.18011,-2.78446 -0.46436,-0.46437 4.03713,-15.20931 5.75833,-18.86176 0.51211,-1.08673 9.73368,-27.98332 20.49237,-59.77019 l 19.56126,-57.79432 h 7.30696 7.30697 l 24.4567,65.15457 c 13.45119,35.83501 24.28935,65.32192 24.08481,65.52646 -0.65923,0.65924 -26.62465,8.12412 -28.25846,8.12412 -1.255,0 -2.03541,-2.68474 -3.80509,-13.09016 -1.22446,-7.19959 -2.46301,-14.09045 -2.75234,-15.31303 -0.51982,-2.19657 -0.72316,-2.22285 -17.19505,-2.22285 -16.47595,0 -16.67494,0.0257 -17.18133,2.22285 -0.98849,4.28887 -6.44088,30.45302 -6.44088,30.90756 0,0.83248 -5.24948,0.25728 -19.15414,-2.09879 z m 59.17931,-48.00391 c 0.73728,-0.7384 -0.37736,-6.0511 -7.062,-33.65949 -5.05698,-20.88596 -4.0802,-19.68297 -14.10327,-17.36937 -2.97122,0.68584 -5.18739,1.78863 -5.45971,2.71683 -1.11332,3.79473 -9.44844,45.82694 -9.44844,47.64643 0,1.97596 0.41003,2.01487 17.70156,1.67987 9.73586,-0.18862 18.0032,-0.64504 18.37186,-1.01427 z"
       id="path131" />
    <path
       style="fill:#c953f4;fill-opacity:1;stroke:#2d2d2d;stroke-width:0.987937;stroke-dasharray:none"
       d="m 915.63511,496.77805 c 0,-0.0769 4.56942,-9.25582 10.15427,-20.39768 5.8859,-11.74246 10.24611,-20.1661 10.37274,-20.03947 0.12016,0.12016 5.22594,8.5489 11.34619,18.73054 6.47258,10.76777 11.40438,18.71871 11.78904,19.00603 l 0.66133,0.49397 -4.44066,0.53792 c -3.49564,0.42345 -4.47737,0.4724 -4.61313,0.23 -0.33554,-0.59909 -12.10664,-18.30722 -12.31849,-18.53161 -0.12983,-0.13751 -0.53771,-0.0541 -1.02902,0.21053 -0.79881,0.43018 -0.84336,0.42638 -2.39576,-0.20442 -0.87001,-0.35351 -1.70159,-0.64066 -1.84797,-0.63812 -0.14638,0.003 -2.04444,4.66847 -4.2179,10.36871 l -3.95175,10.36409 -4.75444,0.005 c -2.61495,0.003 -4.75445,-0.0583 -4.75445,-0.13512 z m 21.85862,-21.72479 c 3.92354,-0.20729 7.16632,-0.40951 7.20619,-0.44937 0.16261,-0.16261 -8.21366,-12.00262 -8.44162,-11.93239 -0.1968,0.0606 -3.09085,4.78072 -7.40634,12.07945 l -0.4016,0.67921 h 0.95483 c 0.52516,0 4.165,-0.1696 8.08854,-0.3769 z"
       id="path132" />
    <path
       style="fill:#f6c97d;fill-opacity:1;stroke:#2d2d2d;stroke-width:2.76549;stroke-dasharray:none"
       d="m 1466.5851,388.50342 c -1.6805,-6.36657 -3.3348,-11.86846 -3.6763,-12.22644 -0.3415,-0.35798 -5.5641,2.61482 -18.8964,1.12173 -13.3325,-1.4931 -20.3754,-10.52458 -20.5114,-10.66797 -0.1361,-0.14339 -8.2001,-7.4748 -12.4178,-19.03993 l -7.8523,-21.53115 -11.5332,-3.64162 c -6.3432,-2.0029 -11.4875,-4.04269 -11.4318,-4.53287 0.056,-0.49019 3.313,-6.11536 7.2384,-12.5004 l 7.1373,-11.60914 1.8861,-32.81301 c 1.0373,-18.04716 1.9642,-32.91995 2.0597,-33.05065 0.1189,-0.16252 149.4587,-5.43843 159.8118,-5.64586 0.2578,-0.005 0.3586,35.25298 0.2241,78.35144 -0.2295,73.53143 -0.3451,78.3908 -1.8747,78.84717 -0.8966,0.2675 -15.55,18.89175 -38.2336,24.15027 -22.6837,5.2585 -46.5559,-4.3382 -47.3786,-4.08902 -1.2185,0.36901 -2.0625,-1.69359 -4.5513,-11.12255 z"
       id="path135"
       sodipodi:nodetypes="ssssscscscsscsssss" />
    <path
       style="fill:#1d1d1d;fill-opacity:1;stroke:#2d2d2d;stroke-width:0.433072;stroke-dasharray:none"
       d="m 1414.7926,274.95943 c 10.0973,26.08729 23.0818,25.42451 31.7434,-0.53162 z"
       id="path3-8-0"
       sodipodi:nodetypes="ccc" />
    <path
       style="fill:none;stroke:#000000;stroke-width:0.933086px;stroke-linecap:butt;stroke-linejoin:miter;stroke-opacity:1"
       d="m 1426.7025,347.91745 26.2456,-14.0519 z"
       id="path137" />
    <path
       style="fill:none;stroke:#000000;stroke-width:1.19441px;stroke-linecap:butt;stroke-linejoin:miter;stroke-opacity:1"
       d="m 1400.2578,263.99036 16.6451,1.04238 5.1144,32.31679 -22.4479,-9.93812 z"
       id="path139" />
    <path
       style="fill:none;stroke:#000000;stroke-width:0.933086px;stroke-linecap:butt;stroke-linejoin:miter;stroke-opacity:1"
       d="m 1448.73,328.8794 7.9675,9.97231 z"
       id="path138" />
    <path
       style="fill:none;stroke:#000000;stroke-width:0.933086px;stroke-linecap:butt;stroke-linejoin:miter;stroke-opacity:1"
       d="m 1396.6072,274.32898 3.0655,0.8013 z"
       id="path140" />
    <path
       style="fill:none;stroke:#000000;stroke-width:0.933086px;stroke-linecap:butt;stroke-linejoin:miter;stroke-opacity:1"
       d="m 1507.314,270.40533 23.4335,-19.03807 13.1228,29.91696 -19.6841,21.7578 -14.9975,-3.6263 50.6165,40.79586 51.5538,-85.21802 -0.9373,-67.99309 -58.1152,-62.55364 h -93.7343 l -55.3033,32.63668 -46.8672,66.17994 9.3735,35.35641 13.1228,18.1315 8.4361,-49.86161 3.7494,29.01039 5.6789,-29.20391 45.8749,-30.63002 19.6842,27.19724 z"
       id="path150"
       sodipodi:nodetypes="cccccccccccccccccccc" />
    <path
       style="fill:#1d1d1d;fill-opacity:1;stroke:#2d2d2d;stroke-width:2.76549;stroke-dasharray:none"
       d="m 1560.2917,278.66881 -0.018,-58.36975 -12.4197,0.56947 c -6.8309,0.3132 -25.9176,0.98256 -42.4148,1.48747 -16.4973,0.50491 -32.5563,1.06682 -35.6869,1.24869 l -5.6918,0.3307 -35.61,2.09517 c -13.1728,0.77505 11.2792,0.54602 -14.2023,-0.83457 -1.3988,0.31496 -5.8042,0.62093 -9.7899,0.67993 -8.496,0.12575 -7.8236,-0.97553 -8.6324,14.13792 -0.4446,8.30616 -0.8419,10.25014 -2.4032,11.76029 -1.8551,1.79411 -1.8713,1.7943 -1.9496,0.0212 -0.29,-6.56787 -3.3781,-25.32574 -4.1443,-25.17274 -0.6912,0.13805 -8.4586,41.33873 -8.8413,46.8965 -0.032,0.46606 -2.7128,-2.79761 -5.9572,-7.25259 -5.8568,-8.04194 -5.9317,-8.22416 -10.4685,-25.43851 l -4.5694,-17.33854 22.3121,-31.61648 c 12.2716,-17.38907 23.204,-32.47214 24.2942,-33.51796 1.0902,-1.0458 13.8735,-8.899 28.4072,-17.45155 l 26.4252,-15.5501 h 46.4005 46.4005 l 29.1104,31.27807 29.1104,31.27806 v 33.7399 33.73989 l -22.1908,36.74504 c -12.2049,20.20977 -23.3747,38.58085 -24.8217,40.82462 l -2.631,4.07959 z"
       id="path151"
       sodipodi:nodetypes="ccssscsssssssssscssscccccccsscc" />
    <path
       style="fill:#1d1d1d;fill-opacity:1;stroke:#2d2d2d;stroke-width:0.691373;stroke-dasharray:none"
       d="m 1534.2981,318.87984 c -12.3534,-9.95734 -22.3185,-18.10155 -22.1447,-18.09824 0.1738,0.004 3.005,0.66133 6.2916,1.46227 4.6102,1.12352 6.0349,1.394 6.2355,1.18385 2.2662,-2.37439 19.7757,-21.94027 19.7757,-22.09828 0,-0.20593 -13.3032,-30.66557 -13.4589,-30.81617 -0.04,-0.0387 -5.3188,4.19171 -11.7307,9.4009 -6.4118,5.2092 -11.7549,9.47127 -11.8734,9.47127 -0.1186,0 -9.3177,-9.53603 -20.4427,-21.19119 l -20.227,-21.19118 0.8454,-0.0601 c 0.9405,-0.0668 50.8815,-1.80261 74.1345,-2.57667 8.2167,-0.27352 16.4243,-0.42109 16.5207,-0.32794 0.2317,0.22407 -1.0656,102.24459 -1.2907,108.27009 l -0.1745,4.67562 z"
       id="path152"
       sodipodi:nodetypes="scssssssscsssscs" />
    <path
       style="fill:#1d1d1d;fill-opacity:1;stroke:#2d2d2d;stroke-width:2.79926;stroke-dasharray:none"
       id="path154"
       d="m 1436.3972,244.42936 c -4.6073,2.05468 -9.2844,3.93427 -14.0381,5.649 -2.2366,0.8064 -4.5244,1.46556 -6.7991,2.16084 0,0 11.2457,7.34386 11.2457,7.34386 v 0 c 2.1141,-0.82814 4.2379,-1.63332 6.3312,-2.51005 4.8676,-1.93319 9.7966,-3.82252 14.9556,-4.89698 z" />
    <path
       style="fill:none;stroke:#000000;stroke-width:0.933086px;stroke-linecap:butt;stroke-linejoin:miter;stroke-opacity:1"
       d="m 1469.1173,400.49878 -5.1554,36.48963 100.9987,-35.58305 -6.327,-22.66437 c -24.0773,27.24741 -54.8324,31.32017 -89.5163,21.75779 z"
       id="path155"
       sodipodi:nodetypes="ccccc" />
    <path
       style="fill:none;stroke:#000000;stroke-width:0.933086px;stroke-linecap:butt;stroke-linejoin:miter;stroke-opacity:1"
       d="m 1418.7282,270.96349 101.0773,-11.37855 v 1.12183 l -101.2223,10.81764 z"
       id="path156" />
    <path
       style="fill:none;stroke:#000000;stroke-width:0.933086px;stroke-linecap:butt;stroke-linejoin:miter;stroke-opacity:1"
       d="m 1558.745,404.46112 27.1749,33.97539 24.0941,235.5045 -182.5155,-2.07868 22.6375,-239.18014 16.1482,-13.63729 -2.8998,18.91083 z"
       id="path157"
       sodipodi:nodetypes="cccccccc" />
    <path
       style="fill:none;stroke:#000000;stroke-width:0.933086px;stroke-linecap:butt;stroke-linejoin:miter;stroke-opacity:1"
       d="m 1521.3742,268.1389 6.5613,8.61246 0.4687,10.87889 -8.436,3.6263 8.5532,-3.56964 -0.5272,-10.99222 z"
       id="path158" />
    <path
       style="fill:none;stroke:#000000;stroke-width:0.933086px;stroke-linecap:butt;stroke-linejoin:miter;stroke-opacity:1"
       d="m 1507.314,458.97285 -19.6842,88.84431 83.4235,-10.8789 -14.0601,-93.37718 z"
       id="path159" />
    <path
       style="fill:#1d1d1d;fill-opacity:1;stroke:#2d2d2d;stroke-width:2.96381;stroke-dasharray:none"
       d=""
       id="path160" />
    <path
       style="fill:#ffffff;fill-opacity:1;stroke:#2d2d2d;stroke-width:0.977753;stroke-dasharray:none"
       d="m 1464.8922,434.87975 c 0.1057,-0.59995 1.1839,-8.23046 2.3959,-16.95668 1.2121,-8.72622 2.2555,-16.03413 2.3188,-16.23978 0.083,-0.27063 0.7845,-0.20438 2.5386,0.23983 5.8727,1.48716 18.07,3.83364 22.4734,4.32334 6.8751,0.76457 16.5211,0.48807 22.0445,-0.63191 9.6128,-1.94918 17.9033,-5.71271 26.7609,-12.1483 3.6908,-2.68157 8.995,-7.31078 12.3406,-10.77007 1.8747,-1.93848 2.7304,-2.23234 3.0359,-1.04263 0.1202,0.46848 1.3708,4.96248 2.779,9.98667 1.4083,5.0242 2.465,9.22886 2.3483,9.3437 -0.1957,0.19269 -97.1945,34.44711 -98.6017,34.82046 -0.5494,0.14579 -0.6027,0.0323 -0.4342,-0.92463 z"
       id="path161" />
    <path
       style="fill:none;stroke:#000000;stroke-width:0.933086px;stroke-linecap:butt;stroke-linejoin:miter;stroke-opacity:1"
       d="m 1434.1383,671.77691 17.8724,130.7877 136.8521,3.6263 11.2482,-132.35988 z"
       id="path162" />
    <path
       style="fill:none;stroke:#000000;stroke-width:1px;stroke-linecap:butt;stroke-linejoin:miter;stroke-opacity:1"
       d="m 1483.3829,803.21884 21.1121,153.5919 c -19.8818,7.36673 -58.4917,17.12777 -61.5664,23.14807 -15.2122,19.97449 2.8811,22.93519 24.3458,24.39029 l 109.4139,1.6017 0.07,-201.19013 z"
       id="path163"
       sodipodi:nodetypes="ccccccc" />
    <path
       style="fill:none;stroke:#000000;stroke-width:1px;stroke-linecap:butt;stroke-linejoin:miter;stroke-opacity:1"
       d="m 1450.9427,974.11594 c -6.1436,-2.61991 -9.8266,-10.00512 0.074,-14.296 l 45.9384,-12.97935 -14.0315,-143.06785 0.4589,-0.55389 21.7809,153.38729 z"
       id="path164"
       sodipodi:nodetypes="ccccccc" />
    <path
       style="fill:#3672aa;fill-opacity:1;stroke:#2d2d2d;stroke-width:1.48191;stroke-dasharray:none"
       d="m 1529.0795,672.26286 c -35.4546,-0.47795 -72.6621,-0.88941 -82.6833,-0.91433 l -18.2205,-0.0453 0.2651,-2.09936 c 0.1459,-1.15466 5.2331,-54.7461 11.305,-119.09211 l 11.0397,-116.99275 7.2548,-6.12754 c 6.9414,-5.86285 7.2438,-6.05825 7.0005,-4.52351 -2.0256,12.77891 -2.4071,15.943 -1.9366,16.06387 0.2885,0.0741 21.7235,-7.31689 47.6333,-16.42445 25.9098,-9.10757 47.2834,-16.55921 47.4969,-16.55921 0.2135,0 6.3837,7.50215 13.7115,16.67144 l 13.3233,16.67144 11.9185,116.57657 c 6.5551,64.11711 11.9176,116.85442 11.9166,117.19403 0,0.73095 5.9919,0.76082 -80.0248,-0.39877 z m 42.3875,-135.44364 c 0.1282,-0.66545 -13.6492,-93.75589 -13.9219,-94.06741 -0.2981,-0.34053 -50.5076,15.68564 -50.806,16.21657 -0.4283,0.76213 -20.0399,89.27293 -19.8276,89.48531 0.076,0.0761 19.0966,-2.32543 42.2677,-5.33676 36.2226,-4.70748 42.1516,-5.59046 42.2878,-6.29771 z"
       id="path166" />
    <path
       style="fill:#3672aa;fill-opacity:1;stroke:#2d2d2d;stroke-width:1.48191;stroke-dasharray:none"
       d="m 1488.7609,545.9587 c 0.1394,-0.47544 4.4992,-20.08391 9.6885,-43.57436 5.1893,-23.49046 9.4804,-42.74895 9.5358,-42.79665 0.5733,-0.4938 48.0924,-14.87211 48.3115,-14.61809 0.3671,0.42553 13.9691,90.96404 13.7055,91.22762 -0.1891,0.18912 -79.5946,10.626 -80.8439,10.62595 -0.387,-10e-6 -0.548,-0.35043 -0.3974,-0.86447 z"
       id="path167" />
    <path
       style="fill:#7f7f7f;fill-opacity:1;stroke:#2d2d2d;stroke-width:4.19146;stroke-dasharray:none"
       d="m 1545.9508,803.29114 c -18.0582,-0.52355 -46.3505,-1.03624 -62.8719,-1.13933 l -30.0388,-0.18742 -8.167,-60.42592 c -4.4919,-33.23426 -8.5189,-62.24989 -8.9491,-64.47918 l -0.782,-4.05326 81.601,1.02636 c 44.8806,0.56451 81.7192,1.14433 81.8635,1.2885 0.1443,0.14417 -2.2013,28.85556 -5.2126,63.80309 -3.0112,34.94753 -5.487,64.0125 -5.5017,64.58883 -0.015,0.57632 -2.0701,0.9314 -4.5675,0.78905 -2.4974,-0.14234 -19.3156,-0.68717 -37.3739,-1.21072 z"
       id="path168" />
    <path
       style="fill:none;stroke:#000000;stroke-width:0.997256px;stroke-linecap:butt;stroke-linejoin:miter;stroke-opacity:1"
       d="m 1503.6909,547.10649 3.633,92.10089 -10.2104,30.06758 -3.9927,23.97099 c 0.9353,7.92428 3.9738,6.18934 6.7179,5.80642 l 6.8333,-21.30596 -5.9125,28.75989 c -0.3837,19.53877 4.9176,7.73348 7.4874,6.2717 l 7.4125,-30.1863 -4.1677,25.75442 c 0.8196,10.88358 4.8697,11.2379 7.5768,3.65337 l 6.173,-30.41553 -2.0274,22.51855 c 0.4069,10.58009 2.8694,10.93697 6.6519,4.72992 l 4.2832,-28.29592 0.04,12.25781 c 0.2639,20.45531 5.6387,6.37182 7.331,-0.46595 l 3.5917,-25.97055 -0.2756,-36.20692 16.5109,-90.47269 z"
       id="path165"
       sodipodi:nodetypes="ccccccccccccccccccccc" />
    <path
       style="fill:#f6c97d;fill-opacity:1;stroke:#2d2d2d;stroke-width:2.96381;stroke-dasharray:none"
       d="m 1498.2065,670.03126 c 0,-0.42789 2.2507,-7.4299 5.0016,-15.56001 l 5.0017,-14.78202 -1.7042,-45.23542 c -1.0247,-27.20085 -1.3448,-45.55976 -0.8029,-46.04897 1.1927,-1.07663 52.6412,-7.4714 53.467,-6.64564 0.3521,0.35214 -3.0056,20.75217 -7.4617,45.33339 l -8.1019,44.69314 0.023,19.51176 0.023,19.51175 h -22.7225 c -12.4974,0 -22.7226,-0.35009 -22.7226,-0.77798 z"
       id="path169" />
    <path
       style="fill:#f6c97d;fill-opacity:1;stroke:#2d2d2d;stroke-width:0.370476;stroke-dasharray:none"
       d="m 1502.4938,716.83857 c -0.735,-0.78236 -1.031,-2.64955 -1.1009,-6.94407 l -0.056,-3.45778 2.9115,-14.13248 c 1.6013,-7.77286 2.9115,-14.22816 2.9115,-14.3451 0,-0.15241 -0.1423,-0.23666 -0.5023,-0.29749 -0.2763,-0.0467 -0.5161,-0.0655 -0.5329,-0.0417 -0.017,0.0237 -1.5219,4.71114 -3.3447,10.41648 -1.8228,5.70533 -3.3479,10.41277 -3.3892,10.46096 -0.041,0.0482 -0.6146,0.17446 -1.2741,0.28059 -1.4403,0.23176 -2.0884,0.11921 -2.6878,-0.46677 -0.7185,-0.70246 -1.325,-2.2456 -1.6027,-4.0775 -0.1446,-0.95373 -0.1362,-1.01561 1.2997,-9.63376 l 1.4452,-8.67386 1.5588,0.034 c 0.8573,0.0187 11.3115,0.1527 23.2316,0.29775 11.9201,0.14505 21.694,0.28236 21.7198,0.30513 0.026,0.0228 -0.439,3.55832 -1.033,7.85678 -0.9181,6.6437 -1.1507,8.06582 -1.5514,9.48579 -1.08,3.82666 -2.6236,7.41916 -3.6447,8.48231 l -0.5677,0.5911 -0.2361,-0.29013 c -0.4506,-0.55378 -0.8552,-2.41126 -1.107,-5.08177 -0.074,-0.78109 -0.1657,-4.96284 -0.2045,-9.29279 l -0.071,-7.87262 h -0.5269 -0.5268 l -0.1299,0.77183 c -0.071,0.4245 -1.0279,6.74575 -2.1256,14.04723 l -1.9959,13.2754 -0.6866,1.04968 c -0.7984,1.22044 -1.8626,2.38175 -2.3785,2.59543 -0.621,0.25723 -0.9267,0.0806 -1.3507,-0.78062 -0.6182,-1.25582 -1.1142,-4.31406 -1.114,-6.86856 1e-4,-0.58251 0.4433,-5.97388 0.985,-11.98082 0.5417,-6.00695 0.9723,-10.93257 0.957,-10.94582 -0.015,-0.0133 -0.2572,-0.062 -0.5373,-0.1082 -0.4629,-0.0764 -0.5159,-0.058 -0.5803,0.202 -0.039,0.15736 -1.4409,7.03624 -3.1152,15.28641 -3.3416,16.46526 -3.2321,16.0318 -4.5517,18.01665 -0.9505,1.42977 -1.7362,1.86561 -2.5024,1.38813 -1.0271,-0.6401 -1.9465,-3.33241 -2.2815,-6.68111 l -0.1421,-1.42015 2.0762,-12.81267 c 1.1419,-7.04697 2.0532,-12.83394 2.0251,-12.85995 -0.028,-0.026 -0.2741,-0.0841 -0.5466,-0.12902 l -0.4954,-0.0817 -3.6738,14.97096 -3.6739,14.97096 -0.7865,0.81105 c -0.4326,0.44607 -0.9983,1.06111 -1.2572,1.36676 -0.7164,0.84566 -1.8068,1.96848 -2.1522,2.2161 -0.5343,0.38308 -0.7941,0.40631 -1.0846,0.097 z"
       id="path170" />
    <path
       style="fill:#f6c97d;fill-opacity:1;stroke:#2d2d2d;stroke-width:4.19146;stroke-dasharray:none"
       d="m 1482.3803,1003.2155 c -26.7219,-0.7328 -31.4549,-1.2024 -36.2297,-3.59453 -8.2192,-4.11779 -9.0984,-6.46535 -5.1844,-13.84333 4.0163,-7.57092 5.6701,-8.39868 39.2659,-19.65389 24.3467,-8.15658 25.8822,-8.87729 25.6057,-12.01869 -0.4785,-5.43571 -19.9458,-142.75971 -20.7413,-146.31067 l -0.7288,-3.25348 40.9209,0.8724 c 22.5065,0.47982 42.9643,1.18648 45.4617,1.57035 l 4.5408,0.69794 v 98.43604 98.43606 l -31.0867,-0.2476 c -17.0977,-0.1362 -44.9185,-0.627 -61.8241,-1.0906 z"
       id="path171" />
    <path
       style="fill:#f6c97d;fill-opacity:1;stroke:#2d2d2d;stroke-width:0.740953;stroke-dasharray:none"
       d="m 1449.2802,972.42137 c -1.5777,-1.02076 -2.5666,-2.15639 -3.3168,-3.80929 -0.5485,-1.20827 -0.5934,-1.88847 -0.2166,-3.27411 0.3485,-1.28124 2.5997,-3.51032 4.4271,-4.38358 0.7439,-0.35549 11.6889,-3.5579 24.3221,-7.11647 12.6333,-3.55858 23.0036,-6.49907 23.0452,-6.53443 0.042,-0.0353 -2.3804,-25.11151 -5.3822,-55.72478 -3.0018,-30.61327 -5.4254,-55.93835 -5.3858,-56.27795 0.1278,-1.09512 16.7391,117.32064 16.7427,119.35239 0,0.61446 -2.9568,2.03247 -8.2732,3.9662 -8.3006,3.01914 -43.4342,14.72759 -44.2336,14.74106 -0.1488,0.003 -0.9268,-0.42007 -1.7289,-0.93904 z"
       id="path172" />
    <path
       style="fill:none;stroke:#000000;stroke-width:1px;stroke-linecap:butt;stroke-linejoin:miter;stroke-opacity:1"
       d="m 1507.0979,954.59416 c 21.72,4.30915 43.6135,8.16283 67.9207,5.68063 -23.6914,1.89065 -45.8434,-1.76064 -67.9207,-5.68063 z"
       id="path173"
       sodipodi:nodetypes="ccc" />
    <path
       style="fill:none;stroke:#000000;stroke-width:1px;stroke-linecap:butt;stroke-linejoin:miter;stroke-opacity:1"
       d="m 1502.6522,918.53445 c 24.0398,1.39291 48.0796,2.83187 72.1194,-1.23492 -24.0398,4.27846 -48.0796,2.73856 -72.1194,1.23492 z"
       id="path174"
       sodipodi:nodetypes="ccc" />
    <path
       style="fill:none;stroke:#000000;stroke-width:1px;stroke-linecap:butt;stroke-linejoin:miter;stroke-opacity:1"
       d="m 1495.2427,923.47414 c 1.6466,2.44687 3.2931,1.60742 4.9397,0.49397 -1.6466,1.16375 -3.2931,0.63511 -4.9397,-0.49397 z"
       id="path175"
       sodipodi:nodetypes="ccc" />
    <path
       style="fill:none;stroke:#000000;stroke-width:1px;stroke-linecap:butt;stroke-linejoin:miter;stroke-opacity:1"
       d="m 1496.4776,947.18463 c -0.3309,3.10226 1.5741,4.46552 7.1626,2.96381 -3.0303,0.012 -6.9183,1.35808 -7.1626,-2.96381 z"
       id="path176"
       sodipodi:nodetypes="ccc" />
    <path
       style="fill:#1e1402;fill-opacity:1;stroke:#2d2d2d;stroke-width:2.09573;stroke-dasharray:none"
       d="m 1489.0168,1000.9879 c -30.1449,-0.7318 -36.7904,-1.38265 -42.437,-4.15635 -2.4005,-1.17917 -4.6647,-2.70493 -5.0317,-3.39057 -0.8184,-1.52916 2.3918,-8.68348 4.9531,-11.03871 2.8499,-2.62057 11.2942,-6.06057 33.0667,-13.47054 22.5723,-7.68214 27.5663,-9.80947 28.1352,-11.98492 0.2711,-1.0369 0.7637,-1.29729 1.9098,-1.00963 2.7296,0.68508 21.4538,3.79619 28.3043,4.70289 3.6501,0.4831 13.0021,0.89474 20.7824,0.91475 l 14.1458,0.0364 3e-4,20.08409 4e-4,20.08409 -30.5628,-0.1102 c -16.8095,-0.061 -40.7794,-0.3582 -53.2665,-0.6613 z"
       id="path179" />
    <path
       style="fill:#1e1402;fill-opacity:1;stroke:#2d2d2d;stroke-width:1.04787;stroke-dasharray:none"
       d="m 1450.2458,972.36253 c -1.108,-0.61011 -2.9833,-2.47663 -3.5227,-3.50624 -0.2718,-0.51876 -0.4941,-1.58993 -0.4941,-2.38038 0,-1.26519 0.2092,-1.64101 1.7487,-3.14051 2.0707,-2.0169 0.043,-1.33988 27.7398,-9.26178 l 19.8831,-5.687 0.5503,1.09614 c 0.7765,1.54688 1.919,2.04345 4.2738,1.85768 2.1791,-0.1719 2.3737,0.0266 2.3842,2.43233 0,1.01024 -0.168,1.1657 -2.4012,2.16423 -1.3233,0.59169 -4.8991,1.96665 -7.9463,3.05546 -6.3236,2.25954 -40.8537,13.78147 -41.2535,13.76535 -0.1449,-0.006 -0.5779,-0.18371 -0.9621,-0.39528 z"
       id="path180" />
    <path
       style="fill:#ffffff;fill-opacity:1;stroke:#2d2d2d;stroke-width:1.04787;stroke-dasharray:none"
       d="m 1551.2452,959.8079 c -9.0852,-0.49515 -18.7615,-1.68655 -34.1609,-4.20607 l -8.9572,-1.46549 -0.2225,-1.77386 c -0.1224,-0.97563 -1.1771,-8.73884 -2.3439,-17.25158 -1.1668,-8.51275 -2.0436,-15.55554 -1.9485,-15.65064 0.095,-0.0951 4.6305,0.10371 10.0785,0.44182 12.2012,0.7572 37.5119,0.86354 44.6599,0.18763 5.0059,-0.47336 12.1117,-1.33764 13.7096,-1.6675 l 0.9605,-0.19828 v 20.75674 20.75674 l -4.2463,0.22832 c -5.0825,0.27328 -10.5168,0.22436 -17.5292,-0.15783 z"
       id="path181" />
    <path
       style="fill:#ffffff;fill-opacity:1;stroke:#2d2d2d;stroke-width:0.523933;stroke-dasharray:none"
       d="m 1498.4476,949.54878 c -0.4521,-0.18702 -1.0642,-0.86676 -1.2078,-1.34125 -0.091,-0.30056 -0.023,-0.39509 0.3487,-0.48848 0.4525,-0.11357 0.4593,-0.13681 0.3532,-1.19912 -0.2973,-2.97401 -2.0264,-21.12377 -2.0264,-21.26983 0,-0.0927 0.2318,-0.0486 0.5152,0.0979 0.5877,0.30388 1.5244,0.34555 2.1783,0.0969 0.3865,-0.14695 0.458,-0.11786 0.5361,0.2183 0.2436,1.04832 3.236,23.61558 3.1583,23.81811 -0.067,0.17464 -0.5233,0.23123 -1.798,0.22297 -0.9396,-0.006 -1.8655,-0.0761 -2.0576,-0.15555 z"
       id="path182" />
  </g>
</svg>
